<?xml version="1.0" encoding="UTF-8" standalone="no"?>
<!DOCTYPE svg PUBLIC "-//W3C//DTD SVG 1.1//EN" "http://www.w3.org/Graphics/SVG/1.1/DTD/svg11.dtd">
<svg width="100%" height="100%" viewBox="0 0 2048 2048" version="1.1" xmlns="http://www.w3.org/2000/svg" xmlns:xlink="http://www.w3.org/1999/xlink" xml:space="preserve" xmlns:serif="http://www.serif.com/" style="fill-rule:evenodd;clip-rule:evenodd;stroke-linecap:round;stroke-linejoin:round;stroke-miterlimit:1.5;">
    <g id="レイヤー5">
        <path d="M325.132,746.268C218.083,950.21 7.001,1217.6 7.001,1217.6C7.001,1217.6 217.468,1054.45 373.087,880.914C396.197,942.985 416.346,1003.78 416.85,1062.56C419.352,1354.33 321.044,1346.72 285.697,1433.77C251.808,1517.24 285.765,1636.64 375.844,1637.27C480.376,1637.99 818.198,1229.37 818.198,1229.37C818.198,1229.37 550.768,1477.18 492.22,1409.03C433.673,1340.87 513.107,1157.77 474.477,1028.53C452.838,956.145 430.745,895.167 414.408,832.911C481.195,751.74 530.771,671.371 536.306,607.245C552.938,414.552 560.978,-5.535 418.984,0.717C285.552,6.593 302.669,443.297 304.387,624.12C304.776,665.003 313.132,705.783 325.132,746.268Z" style="stroke:black;stroke-width:1px;"/>
    </g>
</svg>
