<?xml version="1.0" encoding="UTF-8" standalone="no"?>
<!DOCTYPE svg PUBLIC "-//W3C//DTD SVG 1.1//EN" "http://www.w3.org/Graphics/SVG/1.1/DTD/svg11.dtd">
<svg width="100%" height="100%" viewBox="0 0 2048 2048" version="1.1" xmlns="http://www.w3.org/2000/svg" xmlns:xlink="http://www.w3.org/1999/xlink" xml:space="preserve" xmlns:serif="http://www.serif.com/" style="fill-rule:evenodd;clip-rule:evenodd;stroke-linecap:round;stroke-linejoin:round;stroke-miterlimit:1.5;">
    <g id="レイヤー2">
        <path d="M742.99,802.213C572.33,963.652 406.8,1131.63 259.33,1314.8C220.02,1363.62 181.287,1413.04 146.463,1465.21C120.719,1503.78 97.825,1544.97 86.085,1590.16C85.05,1594.15 84.949,1598.35 85.014,1602.47C85.078,1606.51 85.373,1610.61 86.469,1614.5C95.626,1646.98 137.971,1641.58 163.096,1638.08C175.111,1636.4 187.151,1634.81 199.055,1632.47C211.901,1629.94 224.693,1627.06 237.292,1623.5C312.392,1602.3 385.642,1572.37 450.844,1529.04C514.454,1486.76 567.869,1431.63 620.47,1376.83C563.02,1422.29 503.835,1465.96 440.08,1502.27C392.74,1529.24 341.386,1548.19 290.752,1567.77C266.306,1577.22 241.882,1586.75 217.203,1595.58C207.721,1598.97 198.059,1601.88 188.311,1604.4C178.678,1606.89 168.92,1608.93 159.114,1610.61C153.659,1611.55 148.127,1612.24 142.592,1612.26C133.854,1612.29 126.109,1603.03 128.907,1594.41C135.746,1573.35 151.891,1557.08 164.826,1539.87C214.523,1473.73 213.38,1471.82 265.409,1407.43C410.289,1228.12 578.695,1068.47 759.92,926.348C760.756,986.723 770.25,1048.5 781.714,1107.6C789.771,1149.14 799.512,1190.73 811.833,1231.23C858.387,1384.23 943.04,1545.96 1098.69,1610.8C1121.88,1620.46 1145.78,1627.72 1170.43,1632.59C1204.82,1639.39 1242.36,1643.96 1277.28,1638.32C1302.89,1634.18 1327.7,1624.07 1350.87,1612.74C1388.61,1594.28 1419.14,1578.46 1455.12,1556.72C1517.1,1519.27 1573.28,1474.94 1628.66,1428.36C1703.44,1365.48 1774.73,1298.48 1843.41,1229.02C1746.83,1277.86 1648.45,1323.49 1546.79,1360.78C1477.39,1386.24 1459.45,1391.02 1388.24,1410.74C1342.21,1423.49 1296.47,1437.63 1248.34,1438.67C1234.03,1438.98 1215.15,1435.92 1201.26,1432.89C1115.73,1414.21 1069.92,1325.93 1039.41,1251.96C1034.94,1241.11 1030.57,1230.22 1026.49,1219.22C1016.2,1191.49 1005.09,1159.25 997.286,1130.7C989.1,1100.75 981.125,1070.73 974.115,1040.48C960.838,983.179 948.349,921.212 937.698,862.485L927.059,802.884C1000.34,752.674 1081.65,701.165 1157.64,655.189C1252.93,597.539 1426.84,495.816 1522.64,439.028C1616.72,383.258 1712.13,326.417 1790.1,248.662C1794.43,244.343 1798.47,239.718 1802.2,234.87C1827.16,202.435 1847.24,145.59 1811.05,113.02C1803.25,106 1796.41,101.789 1786.75,97.725C1779.48,94.666 1765.9,90.63 1758.04,89.684C1671.18,79.234 1584.7,101.594 1502.03,125.74C1422.48,148.973 1344.41,177.225 1268.2,209.754C1352.99,192.138 1396.61,183.691 1482.05,169.528C1511.99,164.565 1541.97,159.816 1572.04,155.665C1587.11,153.584 1602.28,152.249 1617.43,150.835C1628.2,149.829 1639,149.132 1649.79,148.408C1670.6,147.01 1693.67,143.715 1714.08,150.858C1725.79,154.953 1733.32,169.283 1723.54,179.534C1717.24,186.134 1710.08,191.884 1702.88,197.495C1695.7,203.097 1688.21,208.32 1680.47,213.124C1653.13,230.097 1625.59,246.77 1597.68,262.799C1569.14,279.192 1540.09,294.68 1511.16,310.371C1304.78,422.306 1094.16,528.969 903.333,666.811C897.213,631.379 891.295,595.912 884.946,560.52C878.594,525.115 872.338,489.686 865.232,454.424C858.13,419.181 850.358,384.073 842.325,349.03C835.422,318.913 823.247,274.425 814.359,244.844C808.62,225.742 802.634,206.712 796.35,187.783C793.178,178.225 789.69,168.769 785.998,159.4C757.19,86.299 704.611,1.878 617.113,-2.23L607.918,-2.412C577.263,-2.215 547.302,5.456 518.083,13.975C402.649,47.631 307.043,133.66 231.421,223.723C208.185,251.397 188.263,278.194 168.207,308.247C131.49,363.264 108.984,399.121 77.402,457.266C48.498,510.479 24.452,559.783 1.913,616.022C32.43,563.994 63.743,515.734 97.945,466.066C158.455,378.195 221.344,288.814 296.793,212.814C323.145,186.27 348.957,163.672 378.055,139.786C385.94,133.313 394.157,127.242 402.519,121.397C445.337,91.471 505.241,58.977 559.411,77.386C623.628,99.209 647.826,171.115 664.26,229.954C667.844,242.786 670.948,255.761 673.566,268.824C679.422,298.039 684.984,327.324 689.676,356.748C694.943,389.778 699.226,422.96 703.435,456.141C708.011,492.204 711.9,528.351 716.028,564.469C725.085,643.709 734.037,722.961 742.99,802.213Z" style="stroke:black;stroke-width:1px;"/>
    </g>
</svg>
