<?xml version="1.0" encoding="UTF-8" standalone="no"?>
<!DOCTYPE svg PUBLIC "-//W3C//DTD SVG 1.1//EN" "http://www.w3.org/Graphics/SVG/1.1/DTD/svg11.dtd">
<svg width="100%" height="100%" viewBox="0 0 2048 2048" version="1.1" xmlns="http://www.w3.org/2000/svg" xmlns:xlink="http://www.w3.org/1999/xlink" xml:space="preserve" xmlns:serif="http://www.serif.com/" style="fill-rule:evenodd;clip-rule:evenodd;stroke-linecap:round;stroke-linejoin:round;stroke-miterlimit:1.5;">
    <g id="レイヤー2">
        <path d="M873.849,1541.49C863.309,1542.69 821.053,1536.88 789.243,1554.68C739.638,1582.44 709.444,1638.05 818.439,1639.71C845.665,1640.12 875.634,1626.37 907.26,1593.72C948.608,1600.14 994.547,1605.44 1028.15,1604.19C1148.28,1599.68 1437.19,1225.05 1437.19,1225.05C1437.19,1225.05 1150.01,1543.45 1028.87,1569.82C1007.87,1574.39 973.795,1567.78 937.582,1558.59C1202.83,1218.93 1513.76,-5.101 821.916,-2.119C245.12,0.367 -39.343,926.584 277.35,917.388C364.292,914.863 519.506,787.829 534.144,871.082C661.887,1597.61 -0.667,1639.2 -0.667,1639.2C-0.667,1639.2 855.23,1731.57 561.726,743.348C510.116,569.577 346.459,794.043 253.215,797.859C-3.07,808.348 384.784,11.604 734.463,143.691C1272.88,347.073 1014.13,1286.88 873.849,1541.49ZM847.344,1583.25C822.733,1578.51 776.233,1618.81 823.105,1604.69C829.815,1602.67 838.031,1595.31 847.344,1583.25Z" style="stroke:black;stroke-width:1px;"/>
    </g>
</svg>
