<?xml version="1.0" encoding="UTF-8" standalone="no"?>
<!DOCTYPE svg PUBLIC "-//W3C//DTD SVG 1.1//EN" "http://www.w3.org/Graphics/SVG/1.1/DTD/svg11.dtd">
<svg width="100%" height="100%" viewBox="0 0 2048 2048" version="1.1" xmlns="http://www.w3.org/2000/svg" xmlns:xlink="http://www.w3.org/1999/xlink" xml:space="preserve" xmlns:serif="http://www.serif.com/" style="fill-rule:evenodd;clip-rule:evenodd;stroke-linecap:round;stroke-linejoin:round;stroke-miterlimit:1.5;">
    <g id="レイヤー2">
        <path d="M897.794,0.418C693.136,-5.377 682.971,100.542 681.016,146.712C412.158,254.214 2.452,410.294 2.452,410.294C2.452,410.294 464.997,339.683 676.544,265.105C670.619,417.016 667.168,653.238 670.229,800.125C675.751,1065.09 816.468,1635.82 816.468,1635.82C816.468,1635.82 949.824,1368.79 1017.49,1299.83C1064.73,1251.68 1230.83,1229.22 1230.83,1229.22C1230.83,1229.22 1040.78,1226.99 989.252,1271.26C925.422,1326.1 843.076,1537.1 843.076,1537.1C843.076,1537.1 838.887,1027.62 830.586,775.809C825.211,612.778 824.264,380.365 822.585,220.871C887.575,177.63 937.527,1.543 897.794,0.418ZM819.37,110.174C824.4,108.055 829.307,105.971 834.071,103.927C880.668,83.938 899.169,28.597 882,26.628C819.19,19.424 819.233,95.66 819.37,110.174Z" style="stroke:black;stroke-width:1px;"/>
    </g>
</svg>
