<?xml version="1.0" encoding="UTF-8" standalone="no"?>
<!DOCTYPE svg PUBLIC "-//W3C//DTD SVG 1.1//EN" "http://www.w3.org/Graphics/SVG/1.1/DTD/svg11.dtd">
<svg width="100%" height="100%" viewBox="0 0 2048 2048" version="1.1" xmlns="http://www.w3.org/2000/svg" xmlns:xlink="http://www.w3.org/1999/xlink" xml:space="preserve" xmlns:serif="http://www.serif.com/" style="fill-rule:evenodd;clip-rule:evenodd;stroke-linejoin:round;stroke-miterlimit:2;">
    <g id="レイヤー2">
        <path d="M1023.55,0.688C976.339,-0.326 953.445,10.567 920.336,54.14C763.646,260.348 378.282,771.41 446.257,767.015C452.399,766.618 458.636,755.967 465.964,747.617C433.864,797.524 391.487,862.791 355.281,897.354C355.281,897.354 580.471,-3.332 217.096,3.388C113.804,5.298 5.946,210.422 5.946,210.422C5.946,210.422 154.494,8.47 203.785,72.077C293.791,188.226 292.473,648.3 249.292,1057.94C189.998,1193.5 80.909,1627.97 165.194,1629.26C219.68,1630.09 292.313,1310.57 362.403,982.062C428.828,899.347 487.934,816.52 553.78,732.367C586.71,690.282 624.781,641.83 664.852,590.319C743.263,531.996 830.91,480.782 911.008,480.797C1156.16,480.84 840.06,1280.82 738.862,1522.74C672.263,1584.7 627.803,1639.94 668.585,1638.34C716.776,1636.45 773.662,1542.52 808.347,1492.43C871.707,1442.71 941.66,1391.39 981.291,1363.83C1059.34,1309.55 1235.76,1235.06 1235.76,1235.06C1235.76,1235.06 1020.81,1300.2 942.958,1355.56C920.923,1371.23 889.801,1394.94 856.075,1422.09C1080.4,1084.76 1456.82,419.697 945.237,409.93C880.549,408.695 823.04,425.079 772.355,450.523C941.275,227.593 1097.14,2.268 1023.55,0.688ZM721.464,1563.87C682.108,1598.59 660.463,1623.17 678.09,1622.92C691.464,1622.74 713.92,1581.5 721.464,1563.87ZM259.914,1164.02C221.04,1256.17 158.021,1502.41 157.953,1502.59C153.567,1541.79 149.077,1598.9 162.638,1581.53C182.303,1556.34 242.471,1284.95 259.914,1164.02ZM508.714,682.904C672.977,444.29 983.956,87.942 987.171,52.238C989.001,31.919 447.465,717.464 498.393,690.066C501.558,688.364 504.996,685.947 508.714,682.904Z"/>
    </g>
</svg>
