<?xml version="1.0" encoding="UTF-8" standalone="no"?>
<!DOCTYPE svg PUBLIC "-//W3C//DTD SVG 1.1//EN" "http://www.w3.org/Graphics/SVG/1.1/DTD/svg11.dtd">
<svg width="100%" height="100%" viewBox="0 0 2048 2048" version="1.1" xmlns="http://www.w3.org/2000/svg" xmlns:xlink="http://www.w3.org/1999/xlink" xml:space="preserve" xmlns:serif="http://www.serif.com/" style="fill-rule:evenodd;clip-rule:evenodd;stroke-linecap:round;stroke-linejoin:round;stroke-miterlimit:1.5;">
    <g id="レイヤー2">
        <path d="M818.803,1450.94C774.005,1478.79 647.907,1640.67 741.948,1639.62C783.115,1639.15 846.457,1556.75 910.04,1433.11C1005.74,1376.68 1125.38,1313.85 1231.15,1281.23C1363.97,1240.26 1645.37,1233.34 1645.37,1233.34C1645.37,1233.34 1319.1,1218.42 1187.84,1258.42C1121.16,1278.75 1024.47,1329.42 935.992,1380.54C1076.26,1085.05 1202.5,633.583 1072.59,564.835C479.675,251.052 40.782,1526.41 40.782,1526.41C40.782,1526.41 394.269,354.94 819.204,77.038C939.574,-1.682 1228.28,214.259 1228.28,214.259C1228.28,214.259 1030.2,-1.944 819.636,-2.609C96.779,-4.891 3.525,1625.36 3.525,1625.36C3.525,1625.36 586.639,562.162 816.348,616.683C961.7,651.183 898.766,1188.47 818.803,1450.94ZM802.613,1499.62C780.57,1513.91 716.453,1615.35 759.132,1580.81C774.705,1568.2 789.256,1536.11 802.613,1499.62Z" style="stroke:black;stroke-width:1px;"/>
    </g>
</svg>
