<?xml version="1.0" encoding="UTF-8" standalone="no"?>
<!DOCTYPE svg PUBLIC "-//W3C//DTD SVG 1.1//EN" "http://www.w3.org/Graphics/SVG/1.1/DTD/svg11.dtd">
<svg width="100%" height="100%" viewBox="0 0 2048 2048" version="1.1" xmlns="http://www.w3.org/2000/svg" xmlns:xlink="http://www.w3.org/1999/xlink" xml:space="preserve" xmlns:serif="http://www.serif.com/" style="fill-rule:evenodd;clip-rule:evenodd;stroke-linecap:round;stroke-linejoin:round;stroke-miterlimit:1.5;">
    <g id="レイヤー2">
        <path d="M910.324,1344.02C788.735,1401.02 488.683,1636.59 618.003,1638.9C700.089,1640.36 926.189,1481.62 1115.45,1303.41C1201.54,1267.2 1283.93,1236.31 1342.61,1222.5C1476.84,1190.89 1855.71,1223.86 1855.71,1223.86C1855.71,1223.86 1556.23,1155.95 1420.93,1176.48C1342.65,1188.35 1263.21,1208.78 1186.64,1233.61C1236.04,1183.04 1280.71,1132.41 1316.74,1084.74C1522.81,812.15 1845.09,11.208 1845.09,11.208C1845.09,11.208 1585.59,156.183 1353.98,271.347C1389.71,110.061 1351.91,4.932 1232.38,2.242C1058.05,-1.681 619.779,450.861 961.627,485.387C1029.49,492.241 1022.92,478.851 1082.46,457.487C941.939,705.218 698.203,973.819 552.859,1087.38C402.961,1204.5 134.399,1464.37 134.399,1464.37C134.399,1464.37 356.583,994.534 426.423,751.463C494.657,513.984 576.298,8.849 576.298,8.849L-0.52,634.081L433.199,215.285C433.199,215.285 312.287,629.651 228.486,887.79C148.399,1134.49 10.699,1634.81 10.699,1634.81C10.699,1634.81 446.004,1361.27 646.417,1235.33C1022.64,998.924 1241.69,615.912 1330.12,355.621C1487.1,284.46 1583.58,240.725 1583.58,240.725C1583.58,240.725 1296.23,834.09 1176.04,1023C1101.48,1140.2 1045.63,1189.16 910.324,1344.02ZM830.045,1433.63C764.01,1465.59 556.408,1625.22 635.375,1604.86C671.595,1595.52 746.877,1523.75 830.045,1433.63ZM1126.63,376.57C1187.13,260.862 1226.28,162.487 1227.33,108.6C1229.24,10.632 707.603,337.53 1025.29,409.315C1045.91,413.974 1082.96,394.315 1126.63,376.57Z" style="stroke:black;stroke-width:1px;"/>
    </g>
</svg>
