<?xml version="1.0" encoding="UTF-8" standalone="no"?>
<!DOCTYPE svg PUBLIC "-//W3C//DTD SVG 1.1//EN" "http://www.w3.org/Graphics/SVG/1.1/DTD/svg11.dtd">
<svg width="100%" height="100%" viewBox="0 0 2048 2048" version="1.1" xmlns="http://www.w3.org/2000/svg" xmlns:xlink="http://www.w3.org/1999/xlink" xml:space="preserve" xmlns:serif="http://www.serif.com/" style="fill-rule:evenodd;clip-rule:evenodd;stroke-linecap:round;stroke-linejoin:round;stroke-miterlimit:1.5;">
    <g id="レイヤー2">
        <path d="M310.259,171.223C263.337,66.43 202.725,1.25 127.988,2.189C50.639,3.16 7.971,200.81 7.971,200.81C7.971,200.81 65.002,114.056 129.057,115.848C184.129,117.388 216.251,196.663 241.588,401.482C174.4,712.785 42.676,1637.95 248.38,1636.98C453.361,1636.02 492.647,716.464 343.043,257.279C373.585,173.306 411.627,118.924 458.993,116.887C488.369,115.624 528.905,242.103 569.565,421.375C508.878,867.472 499.339,1640.48 717.67,1636.78C983.659,1632.28 848.134,695.695 666.43,238.935C703.007,138.935 752.251,113.796 837.704,118.371C997.343,126.918 1090.98,1562.15 1632.36,1552.82C1759.82,1550.62 1851.57,1239.43 1851.57,1239.43C1851.57,1239.43 1722.42,1491.24 1631.56,1463.18C1343.68,1374.29 1217.09,2.632 856.524,-0.916C753.225,-1.933 682.607,63.281 635.553,167.033C585.99,60.724 534.533,-5.658 487.969,-5.106C412.998,-4.216 355.04,65.148 310.259,171.223ZM263.63,638.172C225.951,936.338 203.161,1591.25 234.975,1591.14C278.485,1591 293.374,1074.04 263.63,638.172ZM618.625,636.762C607.781,968.478 686.388,1594.43 713.11,1585.12C755.945,1570.2 699.142,1056.66 618.625,636.762Z" style="stroke:black;stroke-width:1px;"/>
    </g>
</svg>
