<?xml version="1.0" encoding="UTF-8" standalone="no"?>
<!DOCTYPE svg PUBLIC "-//W3C//DTD SVG 1.1//EN" "http://www.w3.org/Graphics/SVG/1.1/DTD/svg11.dtd">
<svg width="100%" height="100%" viewBox="0 0 2048 2048" version="1.1" xmlns="http://www.w3.org/2000/svg" xmlns:xlink="http://www.w3.org/1999/xlink" xml:space="preserve" xmlns:serif="http://www.serif.com/" style="fill-rule:evenodd;clip-rule:evenodd;stroke-linecap:round;stroke-linejoin:round;stroke-miterlimit:1.5;">
    <g id="レイヤー2">
        <path d="M282.036,1173.6C306.243,1063.15 337.096,958.339 377.555,896.719C473.002,751.354 698.293,717.027 826.147,618.776C958.559,517.023 999.989,120.062 873.431,120.517C783.757,120.839 570.46,314.262 349.927,530.258C130.741,744.934 -5.227,979.477 -5.882,937.665C-6.758,881.77 93.331,675.613 189.951,466.657C275.981,280.604 314.588,70.216 314.588,70.216L66.174,324.733C66.174,324.733 312.249,2.462 358.489,1.061C394.989,-0.044 323.737,243.068 282.571,359.078C233.181,498.261 65.103,833.402 65.103,833.402C65.103,833.402 476.41,82.958 948.357,38.266C1283.24,6.553 1125.53,532.477 870.151,702.52C745.235,785.694 601.92,794.297 476.771,997.981C461.021,1023.61 448.129,1056.83 436.838,1094.68C531.104,1073.91 656.315,1083.82 822.439,1149.77C881.354,1173.16 980.184,1210.86 1028.84,1216.89C1172.17,1234.67 1227.37,1230.25 1227.37,1230.25C1227.37,1230.25 1125.5,1259.96 933.003,1220.95C817.87,1197.62 777.692,1136.79 627.926,1114.71C546.928,1102.77 481.722,1106.96 429.262,1121.59C374.646,1326.48 355.128,1641.96 200.109,1639.54C101.226,1638 180.421,1265.93 282.036,1173.6ZM268.575,1238.76C210.95,1328.75 176.482,1631.35 205.368,1591.67C235.196,1550.69 238.543,1392.54 268.575,1238.76Z" style="stroke:black;stroke-width:1px;"/>
    </g>
</svg>
