<?xml version="1.0" encoding="UTF-8" standalone="no"?>
<!DOCTYPE svg PUBLIC "-//W3C//DTD SVG 1.1//EN" "http://www.w3.org/Graphics/SVG/1.1/DTD/svg11.dtd">
<svg width="100%" height="100%" viewBox="0 0 2048 2048" version="1.1" xmlns="http://www.w3.org/2000/svg" xmlns:xlink="http://www.w3.org/1999/xlink" xml:space="preserve" xmlns:serif="http://www.serif.com/" style="fill-rule:evenodd;clip-rule:evenodd;stroke-linecap:round;stroke-linejoin:round;stroke-miterlimit:1.5;">
    <g id="レイヤー2">
        <path d="M870.677,1401.17C797.93,1417.02 729.026,1428.24 641.767,1427.45C353.938,1424.84 532.44,0.463 532.44,0.463C532.44,0.463 271.831,212.433 183.896,316.969C106.945,408.448 4.828,627.682 4.828,627.682C4.828,627.682 177.603,402.905 247.751,323.869C328.805,232.543 491.157,79.73 491.157,79.73C491.157,79.73 -73.193,1634.64 622.446,1636.91C769.655,1637.39 897.588,1613.49 1007.86,1571.09C1008.14,1535.3 1008.91,1323.51 1008.91,1323.51C1008.91,1323.51 1081.78,1322.23 1105.9,1321.71C1024.99,909.465 1124.43,67.961 1298.43,63.252C1599.6,55.101 1694.87,999.919 1105.9,1321.71C1060.14,1323.67 1008.91,1323.51 1008.91,1323.51C1008.91,1323.51 1007.91,1529.45 1007.86,1571.09C1065.53,1613.66 1138.18,1637.75 1227.92,1637.52C1435.07,1636.98 1922.41,1057.52 1922.41,1057.52C1922.41,1057.52 1413.16,1535.61 1249.33,1543.94C1216.14,1545.63 1179.29,1532.83 1156.28,1497.74C1776.44,1097.06 1657.83,0.516 1293.76,-2.888C999.695,-5.638 675.461,947.695 870.677,1401.17Z" style="stroke:black;stroke-width:1px;"/>
    </g>
</svg>
