<?xml version="1.0" encoding="UTF-8" standalone="no"?>
<!DOCTYPE svg PUBLIC "-//W3C//DTD SVG 1.1//EN" "http://www.w3.org/Graphics/SVG/1.1/DTD/svg11.dtd">
<svg width="100%" height="100%" viewBox="0 0 2048 2048" version="1.1" xmlns="http://www.w3.org/2000/svg" xmlns:xlink="http://www.w3.org/1999/xlink" xml:space="preserve" xmlns:serif="http://www.serif.com/" style="fill-rule:evenodd;clip-rule:evenodd;stroke-linecap:round;stroke-linejoin:round;stroke-miterlimit:1.5;">
    <g id="レイヤー2">
        <path d="M117.184,1277.58C84.212,1307.35 83.206,1345.39 95.148,1381.61C88.768,1397.88 0.787,1546.27 1.355,1590.8C1.935,1636.32 29.167,1639.36 51.538,1638.93C113.833,1637.74 124.279,1490.12 142.069,1450.88C160.222,1478.09 311.671,1622.47 600.533,1615.51C653.407,1626.2 706.044,1640.11 759.906,1639.57C1186.42,1635.23 1638.87,1229.32 1638.87,1229.32C1638.87,1229.32 1124.95,1497.35 1012.55,1537.91C930.631,1567.48 844.309,1595.12 756.251,1594.03C902.243,1556.21 1768.56,1046.53 1335.49,763.664C790.53,407.722 384.121,925.807 214.827,1148.9C213.669,1001.66 300.547,681.52 487.887,458.071C831.184,48.602 1224.26,201.976 1224.26,201.976C1224.26,201.976 1122.42,-1.559 938.201,-1.078C191.433,0.873 139.911,1070.26 117.184,1277.58ZM104.67,1447.49C99.621,1460.3 16.655,1602.6 40.553,1603.69C68.33,1604.97 97.441,1471.49 104.67,1447.49ZM646.371,1580.8C727.099,1570.38 1577.61,1153.16 1177.77,933.265C780.127,714.587 284.354,1119.45 210.224,1244.67C248.144,1252.29 311.433,1328.83 332.61,1359.48C432.884,1504.61 570.287,1591.56 646.371,1580.8ZM186.116,1284.97C186.116,1284.97 158.031,1388.95 154.385,1410.89C178.151,1438.64 308.65,1540.52 442.675,1554.16C410.654,1532.34 289.996,1366.36 217.36,1307.85C204.552,1297.53 186.116,1284.97 186.116,1284.97ZM111.911,1322.96C107.933,1330.98 99.739,1356.16 105.049,1356.92C108.284,1357.38 110.888,1331.26 111.911,1322.96Z" style="stroke:black;stroke-width:1px;"/>
    </g>
</svg>
