<?xml version="1.0" encoding="UTF-8" standalone="no"?>
<!DOCTYPE svg PUBLIC "-//W3C//DTD SVG 1.1//EN" "http://www.w3.org/Graphics/SVG/1.1/DTD/svg11.dtd">
<svg width="100%" height="100%" viewBox="0 0 2048 2048" version="1.1" xmlns="http://www.w3.org/2000/svg" xmlns:xlink="http://www.w3.org/1999/xlink" xml:space="preserve" xmlns:serif="http://www.serif.com/" style="fill-rule:evenodd;clip-rule:evenodd;stroke-linecap:round;stroke-linejoin:round;stroke-miterlimit:1.5;">
    <g id="レイヤー2">
        <path d="M924.476,1537.07C892.411,1543.07 683.705,1569.36 682.557,1620.09C682.026,1643.59 773.109,1639.91 820.598,1638.86C938.536,1636.26 1045.4,1592.44 1135.93,1522.84C1241,1500.09 1345.15,1474.33 1400.41,1451.7C1525.05,1400.66 1643.62,1235.66 1643.62,1235.66C1643.62,1235.66 1490.52,1361.55 1410.48,1407.33C1365.94,1432.81 1278.41,1458.93 1184.1,1482.01C1509.86,1178.74 1578.48,533.407 1089.72,432.6C534.782,318.142 474.655,1614.7 304.687,1527.64C-22.694,1359.96 238.637,216.724 825.041,149.731C955.359,134.843 1231.61,211.715 1231.61,211.715C1231.61,211.715 983.785,-2.159 820.29,-1.301C369.02,1.067 7.257,599.105 0.444,920.592C-5.111,1182.75 124.987,1637.05 316.803,1639.27C794.145,1644.78 750.721,422.877 1078.61,517.73C1530.02,648.314 1215.41,1314.52 924.476,1537.07ZM865.701,1576.02C836.427,1581.31 729.289,1609.92 757.015,1609.63C790.551,1609.28 827.419,1597.28 865.701,1576.02Z" style="stroke:black;stroke-width:1px;"/>
    </g>
</svg>
