<?xml version="1.0" encoding="UTF-8" standalone="no"?>
<!DOCTYPE svg PUBLIC "-//W3C//DTD SVG 1.1//EN" "http://www.w3.org/Graphics/SVG/1.1/DTD/svg11.dtd">
<svg width="100%" height="100%" viewBox="0 0 2048 2048" version="1.1" xmlns="http://www.w3.org/2000/svg" xmlns:xlink="http://www.w3.org/1999/xlink" xml:space="preserve" xmlns:serif="http://www.serif.com/" style="fill-rule:evenodd;clip-rule:evenodd;stroke-linecap:round;stroke-linejoin:round;stroke-miterlimit:1.5;">
    <g id="レイヤー2">
        <path d="M223.047,342.158C252.081,187.858 253.356,0.03 414.435,0.029C484.307,0.028 434.584,98.012 349.299,216.175C336.2,321.09 318.574,469.021 304.927,608.362C342.515,532.674 394.221,499.847 465.14,543.444C687.709,680.268 576.177,1523.71 953.216,1358.37C1070.75,1306.83 1210.02,979.443 1292.16,682.415C1268.96,478.757 1185.82,119.531 1359.19,113.608C1565.32,106.566 1508.45,562.88 1382.96,945.67C1425.45,1186.84 1502.07,1397.78 1640.1,1395.94C1732.37,1394.71 1844.8,1224.18 1844.8,1224.18C1844.8,1224.18 1730.46,1433.11 1640.1,1433.69C1496.11,1434.62 1407.28,1253.66 1352.48,1033.38C1277.25,1237.78 1185.26,1403.91 1110,1435.39C602.83,1647.5 527.22,782.96 468.347,649.134C382.081,453.041 324.823,753.419 290.916,1060.12C308.889,1322.58 354.705,1642.06 287.233,1638.82C155.999,1632.51 204.417,1360.52 210.385,1197.44C180.581,1080.13 154.054,957.434 155.324,856.273C156.855,734.411 185.352,548.368 214.654,387.481C109.89,512.887 9.381,620.241 9.381,620.241C9.381,620.241 119.041,484.288 223.047,342.158ZM261.501,1393.8C256.79,1461.4 249.439,1614.59 274.236,1591.42C303.539,1564.04 283.152,1481.26 261.501,1393.8ZM1336.38,498.314C1366.2,349.186 1379.03,224.514 1344.65,190.695C1310.35,156.943 1329.23,354.658 1336.38,498.314ZM358.475,143.77C384.808,100.216 402.52,64.638 405.694,43.685C409.78,16.708 355.322,72.044 358.475,143.77Z" style="stroke:black;stroke-width:1px;"/>
    </g>
</svg>
