<?xml version="1.0" encoding="UTF-8" standalone="no"?>
<!DOCTYPE svg PUBLIC "-//W3C//DTD SVG 1.1//EN" "http://www.w3.org/Graphics/SVG/1.1/DTD/svg11.dtd">
<svg width="100%" height="100%" viewBox="0 0 2048 2048" version="1.1" xmlns="http://www.w3.org/2000/svg" xmlns:xlink="http://www.w3.org/1999/xlink" xml:space="preserve" xmlns:serif="http://www.serif.com/" style="fill-rule:evenodd;clip-rule:evenodd;stroke-linecap:round;stroke-linejoin:round;stroke-miterlimit:1.5;">
    <g id="レイヤー2">
        <path d="M951.187,1278.84C953.773,1450.27 1004.1,1639.18 1213.06,1640.31C1300.82,1640.78 1434.56,1235.44 1434.56,1235.44C1434.56,1235.44 1286.52,1586.6 1203.9,1585.53C1030.59,1583.28 999.089,1371.44 994.408,1194.8C1080.59,1008.78 1102.44,835.413 1080.6,834.138C972.916,827.851 967.807,1064.9 962.132,1107.36C853.739,1275.46 665.815,1453.08 418.534,1360.62C25.04,1213.51 253.787,189.265 736.079,80.703C921.974,38.858 1023.25,419.905 1023.25,419.905C1023.25,419.905 1061.67,16.474 733.394,2.41C405.779,-11.626 -5.766,464.561 -3.864,1034.33C-3.035,1282.58 216.242,1639.4 407.294,1639.81C670.459,1640.37 844.827,1465.64 951.187,1278.84ZM997.481,1048.11C1053.66,946.132 1077.33,861.123 1063.44,863.028C1013.9,869.823 998.634,1030.8 997.481,1048.11Z" style="stroke:black;stroke-width:1px;"/>
    </g>
</svg>
