<?xml version="1.0" encoding="UTF-8" standalone="no"?>
<!DOCTYPE svg PUBLIC "-//W3C//DTD SVG 1.1//EN" "http://www.w3.org/Graphics/SVG/1.1/DTD/svg11.dtd">
<svg width="100%" height="100%" viewBox="0 0 2048 2048" version="1.1" xmlns="http://www.w3.org/2000/svg" xmlns:xlink="http://www.w3.org/1999/xlink" xml:space="preserve" xmlns:serif="http://www.serif.com/" style="fill-rule:evenodd;clip-rule:evenodd;stroke-linejoin:round;stroke-miterlimit:2;">
    <g id="レイヤー2">
        <path d="M591.815,1156.95C559.944,1427.57 623.899,1637.44 816.069,1636.1C983.952,1634.93 1434.34,1226.43 1434.34,1226.43C1434.34,1226.43 1052.04,1476.97 901.607,1475.28C694.615,1472.96 695.336,1164.33 742.693,871.72C872.239,549.592 950.125,249.885 902.319,250.338C777.274,251.522 667.438,685.494 610.548,993.953C475.614,1301.24 362.426,1460.34 285.53,1533.35C209.562,1605.48 205.011,1350.71 207.597,1234.7C216.453,837.392 705.124,106.529 1022.2,106.484C1202.65,106.458 1339.79,414.169 1339.79,414.169C1339.79,414.169 1251.39,4.788 1024.99,2.293C419.318,-4.382 4.103,946.65 2.819,1227.98C2.118,1381.38 71.28,1641.22 205.273,1639.62C337.78,1638.03 458.398,1432.23 591.815,1156.95ZM790.808,632.992C868.617,429.335 915.866,275.641 895.034,283.258C880.359,288.624 828.465,473.806 790.808,632.992Z"/>
    </g>
</svg>
