<?xml version="1.0" encoding="UTF-8" standalone="no"?>
<!DOCTYPE svg PUBLIC "-//W3C//DTD SVG 1.1//EN" "http://www.w3.org/Graphics/SVG/1.1/DTD/svg11.dtd">
<svg width="100%" height="100%" viewBox="0 0 2048 2048" version="1.1" xmlns="http://www.w3.org/2000/svg" xmlns:xlink="http://www.w3.org/1999/xlink" xml:space="preserve" xmlns:serif="http://www.serif.com/" style="fill-rule:evenodd;clip-rule:evenodd;stroke-linecap:round;stroke-linejoin:round;stroke-miterlimit:1.5;">
    <g id="レイヤー2">
        <path d="M949.799,1061C1178.16,1158.46 1843.92,1229.52 1843.92,1229.52C1843.92,1229.52 1158.89,1124.84 1000.27,1015.58C1413.09,687.001 1927.32,69.535 1526.66,62.753C733.951,49.335 776.459,863.485 847.181,977.772C762.288,1048.24 682.057,1098.86 615.968,1114.62C525.672,1136.14 448.532,1161.88 382.904,1189.33C434.814,1057.92 514.932,903.472 545.208,803.578C624.394,542.301 609.796,2.88 609.796,2.88C609.796,2.88 352.035,290.442 226.911,407.89C153.493,476.804 2.349,616.16 2.349,616.16C2.349,616.16 156.553,535.366 227.134,488.766C403.003,372.65 486.729,210.225 486.729,210.225C486.729,210.225 485.468,584.987 417.491,819.716C385.297,930.884 332.783,1093.89 276.778,1240.03C132.552,1318.61 -108.456,1640.16 65.418,1634.47C161.924,1631.31 258.165,1476.91 339.485,1293.33C424.132,1256.06 532.519,1222.69 667.306,1206.38C736.282,1198.04 837.609,1142.92 949.799,1061ZM232.974,1348.7C185.682,1377.54 140.473,1434.51 111.422,1484.01C82.372,1533.51 69.48,1575.53 86.825,1574.47C124.723,1572.15 178.437,1476.49 232.974,1348.7ZM909.828,913.55C1214.73,626.997 1558.69,147.354 1488.37,144.971C825.242,122.502 859.083,811.138 909.828,913.55Z" style="stroke:black;stroke-width:1px;"/>
    </g>
</svg>
