<?xml version="1.0" encoding="UTF-8" standalone="no"?>
<!DOCTYPE svg PUBLIC "-//W3C//DTD SVG 1.1//EN" "http://www.w3.org/Graphics/SVG/1.1/DTD/svg11.dtd">
<svg width="100%" height="100%" viewBox="0 0 2048 2048" version="1.1" xmlns="http://www.w3.org/2000/svg" xmlns:xlink="http://www.w3.org/1999/xlink" xml:space="preserve" xmlns:serif="http://www.serif.com/" style="fill-rule:evenodd;clip-rule:evenodd;stroke-linecap:round;stroke-linejoin:round;stroke-miterlimit:1.5;">
    <g id="レイヤー2">
        <path d="M1027.2,-0.369C781.839,-1.321 545.616,1081.07 532.095,1311.07C441.762,1434.58 348.054,1524.14 258.976,1549.6C111.537,1591.73 -4.74,1235.31 -4.74,1235.31C-4.74,1235.31 55.318,1636.36 206.594,1636.93C305.383,1637.31 418.924,1561.29 532.129,1441.81C540.779,1556.28 576.553,1640.34 662.981,1640.25C985.546,1639.91 1230.37,1235 1230.37,1235C1230.37,1235 830.323,1559.7 682.266,1569.57C607.515,1574.56 579.819,1498.32 576.634,1392.61C972.402,935.61 1339.59,0.843 1027.2,-0.369ZM585.551,1233.54C872.153,794.475 1097.39,58.321 1005.72,60.348C822.336,64.403 607.533,1049.59 585.551,1233.54Z" style="stroke:black;stroke-width:1px;"/>
    </g>
</svg>
