<?xml version="1.0" encoding="UTF-8" standalone="no"?>
<!DOCTYPE svg PUBLIC "-//W3C//DTD SVG 1.1//EN" "http://www.w3.org/Graphics/SVG/1.1/DTD/svg11.dtd">
<svg width="100%" height="100%" viewBox="0 0 2048 2048" version="1.1" xmlns="http://www.w3.org/2000/svg" xmlns:xlink="http://www.w3.org/1999/xlink" xml:space="preserve" xmlns:serif="http://www.serif.com/" style="fill-rule:evenodd;clip-rule:evenodd;stroke-linecap:round;stroke-linejoin:round;stroke-miterlimit:1.5;">
    <g id="レイヤー2">
        <path d="M886.033,-0.139C344.082,5.037 667.083,1125.91 949.574,1294.92C841.801,1422.32 716.256,1488.72 607.472,1439.03C-211.402,1065.01 712.048,17.809 712.048,17.809C712.048,17.809 -2.672,321.988 4.721,1029.02C7.605,1304.86 303.065,1640.95 512.745,1641.41C737.866,1641.9 922.074,1520.15 1056.38,1342.69C1106.71,1358.43 1162.63,1367.38 1224.79,1367.73C1345.43,1368.4 1435.06,1228.58 1435.06,1228.58C1435.06,1228.58 1296.79,1313.49 1223.62,1312.03C1175.96,1311.08 1132.4,1303.88 1092.64,1291.64C1415.46,807.55 1398.68,-5.034 886.033,-0.139ZM989.24,1244.19C1224.08,920.08 1354.51,293.733 937.119,80.694C499.888,-142.47 745.218,1090.65 989.24,1244.19Z" style="stroke:black;stroke-width:1px;"/>
    </g>
</svg>
