<?xml version="1.0" encoding="UTF-8" standalone="no"?>
<!DOCTYPE svg PUBLIC "-//W3C//DTD SVG 1.1//EN" "http://www.w3.org/Graphics/SVG/1.1/DTD/svg11.dtd">
<svg width="100%" height="100%" viewBox="0 0 2048 2048" version="1.1" xmlns="http://www.w3.org/2000/svg" xmlns:xlink="http://www.w3.org/1999/xlink" xml:space="preserve" xmlns:serif="http://www.serif.com/" style="fill-rule:evenodd;clip-rule:evenodd;stroke-linecap:round;stroke-linejoin:round;stroke-miterlimit:1.5;">
    <g id="レイヤー2">
        <path d="M159.141,440.375C155.776,295.59 132.753,2.254 286.229,1.312C342.284,0.968 279.677,224.313 234.487,500.467C256.541,572.482 294.779,636.334 358.604,674.001C521.299,770.015 1230.14,613.374 1230.14,613.374C1230.14,613.374 572.751,912.411 293.154,764.276C257.039,745.142 229.941,715.243 209.91,678.472C184.032,918.305 191.252,1166.48 311.099,1320.71C483.669,1542.79 1442.03,1230.07 1442.03,1230.07C1442.03,1230.07 1026.71,1637.07 415.004,1634.15C225.331,1633.25 4.367,1429.94 4.345,1240.27C4.316,998.626 86.168,690.157 159.141,440.375ZM207.459,277.246C237.707,175.198 251.33,113.665 258.508,64.339C260.917,47.787 240.175,73.15 223.326,132.653C208.787,183.999 207.877,246.045 207.459,277.246Z" style="stroke:black;stroke-width:1px;"/>
    </g>
</svg>
