<?xml version="1.0" encoding="UTF-8" standalone="no"?>
<!DOCTYPE svg PUBLIC "-//W3C//DTD SVG 1.1//EN" "http://www.w3.org/Graphics/SVG/1.1/DTD/svg11.dtd">
<svg width="100%" height="100%" viewBox="0 0 2048 2048" version="1.1" xmlns="http://www.w3.org/2000/svg" xmlns:xlink="http://www.w3.org/1999/xlink" xml:space="preserve" xmlns:serif="http://www.serif.com/" style="fill-rule:evenodd;clip-rule:evenodd;stroke-linejoin:round;stroke-miterlimit:2;">
    <g id="レイヤー2">
        <path d="M958.124,973.223C1051.33,1020.47 1100.06,1120.66 1210.81,1175.19C1297.75,1217.99 1437.51,1237.45 1437.51,1237.45C1437.51,1237.45 1348.07,1203.26 1265.49,1137.71C1169.18,1061.25 1120.14,928.202 987.416,844.03C1034.55,607.341 1039.62,409.592 1025.4,409.26C1011.02,408.924 983.278,593.547 921.95,808.196C344.46,520.981 299.435,1134.5 308.52,1425.98C196.445,1351.04 142.208,1167.59 149.716,1017.47C171.681,578.322 498.026,169.83 695.235,122.433C910.84,70.615 1030.19,217.902 1030.19,217.902C1030.19,217.902 969.529,-0.294 823.535,0.777C515.781,3.034 -3.032,292.308 -4.964,1007.93C-5.928,1364.55 207.196,1629.2 404.734,1636.89C707.811,1648.7 874.149,1301.39 958.124,973.223ZM880.978,939.28C343.956,730.152 401.514,1354.44 414.89,1460.27C417.341,1460.34 419.834,1460.37 422.342,1460.35C649.955,1458.53 791.721,1199.63 880.978,939.28Z"/>
    </g>
</svg>
