<?xml version="1.0" encoding="UTF-8" standalone="no"?>
<!DOCTYPE svg PUBLIC "-//W3C//DTD SVG 1.1//EN" "http://www.w3.org/Graphics/SVG/1.1/DTD/svg11.dtd">
<svg width="100%" height="100%" viewBox="0 0 2048 2048" version="1.1" xmlns="http://www.w3.org/2000/svg" xmlns:xlink="http://www.w3.org/1999/xlink" xml:space="preserve" xmlns:serif="http://www.serif.com/" style="fill-rule:evenodd;clip-rule:evenodd;stroke-linecap:round;stroke-linejoin:round;stroke-miterlimit:1.5;">
    <g id="レイヤー2">
        <path d="M9.267,614.525L352.043,245.672C352.043,245.672 261.214,658.302 215.521,921.224C174.852,1155.24 204.722,1633.7 204.722,1633.7C204.722,1633.7 550.622,398.486 1168.03,165.243C1282.77,121.896 1206.65,370.518 1134.2,576.74C977.724,1022.12 820.603,1633.89 820.603,1633.89C820.603,1633.89 1085.78,1491.44 1220.88,1425.93C1359.05,1358.94 1649.58,1231.95 1649.58,1231.95C1649.58,1231.95 1355.51,1291.79 1227.79,1348.47C1109.4,1401 883.264,1572.01 883.264,1572.01C883.264,1572.01 1208.87,896.497 1312.49,661.789C1399.47,464.773 1948.1,-7.005 1230.32,-2.628C534.491,1.615 226.21,1535.66 226.21,1535.66C226.21,1535.66 240.823,1129.27 292.57,929.052C358.761,672.942 502.95,-1.228 502.95,-1.228L9.267,614.525Z" style="stroke:black;stroke-width:1px;"/>
    </g>
</svg>
