<?xml version="1.0" encoding="UTF-8" standalone="no"?>
<!DOCTYPE svg PUBLIC "-//W3C//DTD SVG 1.1//EN" "http://www.w3.org/Graphics/SVG/1.1/DTD/svg11.dtd">
<svg width="100%" height="100%" viewBox="0 0 2048 2048" version="1.1" xmlns="http://www.w3.org/2000/svg" xmlns:xlink="http://www.w3.org/1999/xlink" xml:space="preserve" xmlns:serif="http://www.serif.com/" style="fill-rule:evenodd;clip-rule:evenodd;stroke-linecap:round;stroke-linejoin:round;stroke-miterlimit:1.5;">
    <g id="レイヤー2">
        <path d="M887.737,914.121C729.45,1052.14 571.285,1182.44 443.006,1285.08C327.101,1377.83 132.456,1631.98 132.456,1631.98C132.456,1631.98 36.361,1362.56 45.943,1227.71C78.698,766.728 365.211,168.978 365.211,168.978C365.211,168.978 282.463,224.255 231.466,288.515C167.749,368.803 -2.807,614.921 -2.807,614.921C-2.807,614.921 85.231,423.94 151,335.398C225.14,235.586 499.966,-13.865 499.966,-13.865C499.966,-13.865 240.263,856.381 192.182,1109.57C169.23,1230.44 153.553,1535.17 153.553,1535.17C153.553,1535.17 286.298,1264.73 385.179,1157.31C466.619,1068.85 656.556,915.031 853.223,751.834L892.689,719.054C1229.71,438.428 1566.87,141.177 1396.8,106.459C1016.13,28.75 915.21,483.272 894.818,608.344L894.582,609.8C894.582,609.8 887.649,653.541 892.689,719.054L853.223,751.834C850.878,727.801 852.969,607.859 852.969,607.859L853.118,607.866C855.393,566.71 905.978,-5.68 1501.39,-2.094C1845.85,-0.019 920.669,862.154 927.057,879.621L887.737,914.121ZM927.057,879.621C966.649,988.084 1047.67,1107.1 1209.91,1191.1C1335.89,1256.34 1651.82,1229.28 1651.82,1229.28C1651.82,1229.28 1308.81,1303.34 1163.03,1230.59C1007.08,1152.76 927.567,1030.01 887.737,914.121L927.057,879.621Z" style="stroke:black;stroke-width:1px;"/>
    </g>
</svg>
