<?xml version="1.0" encoding="UTF-8" standalone="no"?>
<!DOCTYPE svg PUBLIC "-//W3C//DTD SVG 1.1//EN" "http://www.w3.org/Graphics/SVG/1.1/DTD/svg11.dtd">
<svg width="100%" height="100%" viewBox="0 0 2048 2048" version="1.1" xmlns="http://www.w3.org/2000/svg" xmlns:xlink="http://www.w3.org/1999/xlink" xml:space="preserve" xmlns:serif="http://www.serif.com/" style="fill-rule:evenodd;clip-rule:evenodd;stroke-linecap:round;stroke-linejoin:round;stroke-miterlimit:1.5;">
    <g id="レイヤー2">
        <path d="M98.472,1182.41C4.183,1319.55 -0.135,1443.69 0.111,1520.81C0.258,1566.81 12.243,1636.72 75.749,1637.37C171.696,1638.36 179.309,1431.85 200.072,1170.32C215.45,1155.23 231.965,1143.76 249.598,1137.36C355.122,1099.06 616.832,1232.45 616.832,1232.45C616.832,1232.45 327.176,1037.82 224.198,1077.93C218.397,1080.19 212.744,1082.66 207.255,1085.3C215.978,989.433 227.687,888.714 246.852,789.872C326.192,380.68 426.027,2.387 388.661,4.159C334.642,6.72 134.581,265.16 7.583,410.125C7.583,410.125 358.395,47.113 327.618,102.892C275.978,196.483 173.829,470.193 132.254,768.541C112.845,907.822 103.933,1052.03 98.472,1182.41ZM91.953,1366.25C68.712,1431.57 50.045,1604.07 64.598,1567.65C83.302,1520.84 88.415,1471.02 91.953,1366.25Z" style="stroke:black;stroke-width:1px;"/>
    </g>
</svg>
