<?xml version="1.0" encoding="UTF-8" standalone="no"?>
<!DOCTYPE svg PUBLIC "-//W3C//DTD SVG 1.1//EN" "http://www.w3.org/Graphics/SVG/1.1/DTD/svg11.dtd">
<svg width="100%" height="100%" viewBox="0 0 2048 2048" version="1.1" xmlns="http://www.w3.org/2000/svg" xmlns:xlink="http://www.w3.org/1999/xlink" xml:space="preserve" xmlns:serif="http://www.serif.com/" style="fill-rule:evenodd;clip-rule:evenodd;stroke-linecap:round;stroke-linejoin:round;stroke-miterlimit:1.5;">
    <g id="レイヤー2">
        <path d="M1004.56,1363.71C884.83,1420.78 584.485,1639.86 819.313,1639.37C908.546,1639.19 1012.23,1532.44 1094.37,1384.02C1152.17,1359.98 1218.4,1338.68 1292.32,1324.59C1472.41,1290.25 1852.55,1226.98 1852.55,1226.98C1852.55,1226.98 1458.76,1229.88 1276.91,1268.9C1226.18,1279.79 1177.43,1294.26 1131.61,1310.66C1225.3,1109.31 1275.78,858.691 1211.24,689.522C1508.61,350.932 1795.7,-1.455 1795.7,-1.455C1795.7,-1.455 1277.01,176.399 1011.3,244.928C745.576,313.457 201.386,409.717 201.386,409.717C201.386,409.717 784.396,426.636 1034.66,369.536C1273.06,315.145 1568.2,193.374 1568.2,193.374C1568.2,193.374 1444.96,334.679 1168.6,611.74C1119.79,547.719 1043.55,507.601 933.031,499.443C572.057,472.797 2.02,1075.68 -2.513,1432.81C-5.726,1685.95 495.966,1390.55 667.765,1253.7C769.988,1172.28 933.426,1000.71 1104.53,809.843C1153.95,968.731 1088.61,1195.22 1004.56,1363.71ZM953.064,1456.19C893.754,1492.62 774.937,1588.13 829.731,1590.7C863.312,1592.28 907.337,1529.48 953.064,1456.19ZM1058.62,721.489C1037.56,695.197 1011.5,671.078 976.885,656.018C734.882,550.734 150.339,1300.7 155.592,1372.19C161.366,1450.79 444.156,1286.03 588.682,1166.29C689.787,1082.52 871.192,907.594 1058.62,721.489Z" style="stroke:black;stroke-width:1px;"/>
    </g>
</svg>
