<?xml version="1.0" encoding="UTF-8" standalone="no"?>
<!DOCTYPE svg PUBLIC "-//W3C//DTD SVG 1.1//EN" "http://www.w3.org/Graphics/SVG/1.1/DTD/svg11.dtd">
<svg width="100%" height="100%" viewBox="0 0 2048 2048" version="1.1" xmlns="http://www.w3.org/2000/svg" xmlns:xlink="http://www.w3.org/1999/xlink" xml:space="preserve" xmlns:serif="http://www.serif.com/" style="fill-rule:evenodd;clip-rule:evenodd;stroke-linecap:round;stroke-linejoin:round;stroke-miterlimit:1.5;">
    <g id="レイヤー5">
        <path d="M158.029,367.579C254.167,706.672 955.738,1255.28 1119.64,1308.15C1092.92,1394.29 1004.64,1501.09 922.63,1501.33C735.649,1501.88 -0.191,1230.64 -0.191,1230.64C-0.191,1230.64 477.889,1636.18 918.918,1640.55C1091.04,1642.25 1333.16,1503.1 1387.55,1342.18C1511.28,1320.9 1639.73,1230.49 1639.73,1230.49C1639.73,1230.49 1512.53,1277.3 1398.29,1289.13C1399.49,1270.54 1397.94,1251.81 1393.26,1233.11C1325.05,960.384 767.108,3.921 509.678,4.218C286.61,4.476 108.868,194.183 158.029,367.579ZM1125.85,1245.46C1124.97,1239.3 1123.6,1233.26 1121.69,1227.37C1053.15,1015.73 557.989,50.345 336.466,238.328C142.746,402.716 1005.84,1193.98 1125.85,1245.46Z" style="stroke:black;stroke-width:1px;"/>
    </g>
</svg>
