<?xml version="1.0" encoding="UTF-8" standalone="no"?>
<!DOCTYPE svg PUBLIC "-//W3C//DTD SVG 1.1//EN" "http://www.w3.org/Graphics/SVG/1.1/DTD/svg11.dtd">
<svg width="100%" height="100%" viewBox="0 0 2048 2048" version="1.1" xmlns="http://www.w3.org/2000/svg" xmlns:xlink="http://www.w3.org/1999/xlink" xml:space="preserve" xmlns:serif="http://www.serif.com/" style="fill-rule:evenodd;clip-rule:evenodd;stroke-linecap:round;stroke-linejoin:round;stroke-miterlimit:1.5;">
    <g id="レイヤー5">
        <path d="M1.277,1240.67L227.311,1149.54C101.064,1422.48 58.937,1636.33 200.272,1637.22C1029.87,1642.4 1640.69,1243.51 1640.69,1243.51C1640.69,1243.51 610.023,1491.36 459.415,1374.86C404.62,1332.48 416.991,1206.76 463.666,1050.54C912.376,851.14 1525.24,537.589 1524.28,327.945C1523.49,155.936 1319.45,0.215 1135.27,0.126C940.131,0.031 467.267,638.646 238.8,1118.63C97.399,1190.98 1.277,1240.67 1.277,1240.67ZM478.426,996.642L478.777,996.429C478.777,996.429 1340.22,494.88 1287.19,353.977C1233.88,212.308 1063.19,206.914 918.753,297.551C790.245,378.192 579.909,693.627 478.777,996.429L478.335,996.669L478.426,996.642Z" style="stroke:black;stroke-width:1px;"/>
    </g>
</svg>
