<?xml version="1.0" encoding="UTF-8" standalone="no"?>
<!DOCTYPE svg PUBLIC "-//W3C//DTD SVG 1.1//EN" "http://www.w3.org/Graphics/SVG/1.1/DTD/svg11.dtd">
<svg width="100%" height="100%" viewBox="0 0 2048 2048" version="1.1" xmlns="http://www.w3.org/2000/svg" xmlns:xlink="http://www.w3.org/1999/xlink" xml:space="preserve" xmlns:serif="http://www.serif.com/" style="fill-rule:evenodd;clip-rule:evenodd;stroke-linecap:round;stroke-linejoin:round;stroke-miterlimit:1.5;">
    <g id="レイヤー5">
        <path d="M809.77,-1.088C327.852,-13.448 317.374,846.489 479.905,911.304C280.942,1094.88 -3.564,1227.35 -3.564,1227.35C-5.107,1233.58 450.18,1164.74 622.695,991.182C640.367,973.403 660.456,950.349 681.956,923.173C750.047,901.664 819.646,852.905 878.977,795.019C844.682,1079.9 805.235,1639.51 1024.98,1637.35C1120.93,1636.4 1229,1227.97 1229,1227.97C1229,1227.97 1103.05,1534.55 1023.69,1515.14C949.752,1497.06 966.663,835.607 969.925,688.056C1033.05,597.197 1059.73,509.457 1013.52,480.953C939.658,435.39 892.793,689.643 887.82,726.11C836.552,779.575 777.573,831.424 726.052,864.359C933.033,574.527 1202.87,8.994 809.77,-1.088ZM513.718,878.735C514.26,878.189 513.162,879.298 513.718,878.735C695.343,694.792 871.274,259.491 829.779,171.943C807.721,125.402 734.512,55.938 625.682,122.951C354.06,290.206 374.069,822.15 513.718,878.735ZM971.413,627.907C1005.62,581.17 1023.94,542.937 1012.94,528.547C990.226,498.847 972.101,583.935 971.413,627.907Z" style="stroke:black;stroke-width:1px;"/>
    </g>
</svg>
