<?xml version="1.0" encoding="UTF-8" standalone="no"?>
<!DOCTYPE svg PUBLIC "-//W3C//DTD SVG 1.1//EN" "http://www.w3.org/Graphics/SVG/1.1/DTD/svg11.dtd">
<svg width="100%" height="100%" viewBox="0 0 2048 2048" version="1.1" xmlns="http://www.w3.org/2000/svg" xmlns:xlink="http://www.w3.org/1999/xlink" xml:space="preserve" xmlns:serif="http://www.serif.com/" style="fill-rule:evenodd;clip-rule:evenodd;stroke-linecap:round;stroke-linejoin:round;stroke-miterlimit:1.5;">
    <g id="レイヤー5">
        <path d="M731.287,0.726C608.189,-2.733 558.816,125.532 546.893,208.015C536.556,279.524 530.398,327.771 522.294,423.369C502.144,418.262 481.74,414.452 461.641,412.09C333.216,397 217.277,441.058 263.928,584.789C293.672,676.433 403.497,720.083 509.521,722.859C509.747,795.566 512.67,870.784 519.591,945.423C394.391,1087.38 198.694,1225.33 210.417,1226.04C220.643,1226.66 393.373,1146.87 530.083,1035.84C575.021,1354.61 704.674,1638.96 1024.39,1638.64C1440.87,1638.22 1638.89,1434.1 1638.89,1434.1C1638.89,1434.1 1468.42,1496.43 1295.27,1538.17C1295.42,1537.75 1295.49,1537.53 1295.49,1537.53L1294.39,1537.07C1546.82,1316.36 1557.18,822.313 1055.81,824.414C848.694,825.282 724.124,1076.57 730.72,1300.2L730.76,1301.52C730.821,1301.64 730.813,1303.15 730.76,1301.52L730.175,1300.3C678.438,1192.96 648.268,1065.89 631.946,936.498C652.798,910.787 669.75,884.354 681.084,857.606C766.97,654.911 824.757,3.353 731.287,0.726ZM1061.17,901.609C945.873,880.258 839.627,1008.79 811.686,1159.76C783.745,1310.72 834.108,1484.12 1032.03,1552.5C1227.6,1620.08 1530.61,988.537 1061.17,901.609ZM647.388,700.626C637.48,704.62 626.976,708.094 616.006,711.038C616.562,736.418 617.497,762.12 618.872,787.976C628.75,761.869 638.304,732.375 647.388,700.626ZM516.212,505.908C494.945,499.702 473.101,494.439 451.796,490.583C353.887,472.864 267.36,484.858 299.258,571.176C316.749,618.505 417.123,651.091 510,658.79C510.95,605.437 513.207,554.026 516.212,505.908ZM617.344,545.004C616.065,580.27 615.333,617.029 615.37,654.759C637.117,650.244 654.633,642.994 665.314,632.714C668.466,619.803 671.54,606.677 674.527,593.4C673.989,591.714 675.255,595.138 674.527,593.4C669.081,580.405 646.481,559.905 617.344,545.004ZM691.762,510.199C727.379,323.077 744.132,128.923 723.308,76.908C702.553,25.064 666.128,160.473 653.398,208.476C636.434,272.448 628.804,344.597 621.523,460.737C648.734,474.939 672.871,491.623 691.762,510.199Z" style="stroke:black;stroke-width:1px;"/>
    </g>
</svg>
