<?xml version="1.0" encoding="UTF-8" standalone="no"?>
<!DOCTYPE svg PUBLIC "-//W3C//DTD SVG 1.1//EN" "http://www.w3.org/Graphics/SVG/1.1/DTD/svg11.dtd">
<svg width="100%" height="100%" viewBox="0 0 2048 2048" version="1.1" xmlns="http://www.w3.org/2000/svg" xmlns:xlink="http://www.w3.org/1999/xlink" xml:space="preserve" xmlns:serif="http://www.serif.com/" style="fill-rule:evenodd;clip-rule:evenodd;stroke-linecap:round;stroke-linejoin:round;stroke-miterlimit:1.5;">
    <g id="レイヤー5">
        <path d="M459.371,1006.28C554.551,973.603 789.78,745.388 789.78,745.388C789.78,745.388 1249.87,386.699 1226.93,232.512C1199.95,51.211 1017.87,1.721 821.533,-0.186C273.999,-5.504 279.948,964.805 277.331,1065.5C132.705,1160.61 2.046,1243.28 2.046,1243.28C2.046,1243.28 131.286,1179.51 276.238,1104.37C272.347,1232.66 265.364,1366.88 252.843,1445.55C172.576,1446.92 2.178,1486.61 0.92,1567.15C0.437,1598.04 21.415,1638.55 63.602,1638.79C124.082,1639.14 337.25,1575.3 374.481,1496.56C377.114,1490.99 379.696,1484.78 382.221,1478.01C407.87,1478.44 434.266,1479.66 460.944,1481.93C590.432,1492.94 725.849,1562 817.267,1543.54C1039.76,1498.64 1434.08,1229.16 1434.08,1229.16C1434.08,1229.16 1039.46,1478.68 817.612,1515.57C728.639,1530.36 592.872,1467.43 465.74,1454.1C440.772,1451.48 416.064,1449.55 391.992,1448.17C422.723,1342.76 445.303,1154.18 459.371,1006.28ZM245.464,1482.52C165.493,1488.9 36.838,1537.16 51.746,1579.52C68.875,1628.2 227.894,1544.83 244.265,1486.95C244.671,1485.52 245.071,1484.04 245.464,1482.52ZM925.512,532.471C925.512,532.471 1053.19,420.434 1052.86,294.811C1052.59,193.548 930.273,94.675 818.98,99.97C464.105,116.853 469.565,891.385 465.401,939.713C498.858,916.891 549.171,879.942 589.189,852.213C589.189,852.213 560.124,828.754 558.242,811.631C555.176,783.728 530.33,679.755 696.142,541.149C737.651,506.451 883.911,431.757 911.164,462.682C926.848,480.479 930.201,504.931 925.512,532.471ZM636.297,821.742C640.842,818.507 760.302,731.702 790.413,693.566C1001.49,426.234 753.993,593.553 710.555,635.267C672.868,671.46 627.516,736.106 617.399,777.853C611.527,802.08 626.793,814.12 636.297,821.742" style="stroke:black;stroke-width:1px;"/>
    </g>
</svg>
