<?xml version="1.0" encoding="UTF-8" standalone="no"?>
<!DOCTYPE svg PUBLIC "-//W3C//DTD SVG 1.1//EN" "http://www.w3.org/Graphics/SVG/1.1/DTD/svg11.dtd">
<svg width="100%" height="100%" viewBox="0 0 2048 2048" version="1.1" xmlns="http://www.w3.org/2000/svg" xmlns:xlink="http://www.w3.org/1999/xlink" xml:space="preserve" xmlns:serif="http://www.serif.com/" style="fill-rule:evenodd;clip-rule:evenodd;stroke-linecap:round;stroke-linejoin:round;stroke-miterlimit:1.5;">
    <g id="レイヤー5">
        <path d="M731.287,0.726C608.189,-2.733 562.686,128.761 548.445,203.717C543.822,228.05 541.022,249.232 537.54,277.218C520.734,273.34 503.814,270.376 487.106,268.412C358.681,253.322 242.742,297.381 289.393,441.112C317.031,526.265 413.809,569.982 512.435,577.973C511.753,594.173 511.172,610.666 510.712,627.382C481.668,618.138 451.443,611.53 421.879,608.056C293.454,592.966 177.515,637.024 224.166,780.755C258.391,886.204 398.64,928.11 517.173,917.322C517.915,926.668 518.721,936.05 519.591,945.423C394.391,1087.38 198.694,1225.33 210.417,1226.04C220.643,1226.66 393.373,1146.87 530.083,1035.84C575.021,1354.61 704.674,1638.96 1024.39,1638.64C1440.87,1638.22 1638.89,1434.1 1638.89,1434.1C1638.89,1434.1 1468.42,1496.43 1295.27,1538.17C1295.42,1537.75 1295.49,1537.53 1295.49,1537.53L1294.39,1537.07C1546.82,1316.36 1557.18,822.313 1055.81,824.414C848.694,825.282 724.124,1076.57 730.72,1300.2L730.76,1301.52C730.821,1301.64 730.813,1303.15 730.76,1301.52L730.175,1300.3C678.438,1192.96 648.268,1065.89 631.946,936.498C652.798,910.787 669.75,884.354 681.084,857.606C706.068,798.643 728.674,701.696 745.871,593.79C787.791,330.752 797.567,2.589 731.287,0.726ZM1061.17,901.609C945.873,880.258 839.627,1008.79 811.686,1159.76C783.745,1310.72 834.108,1484.12 1032.03,1552.5C1227.6,1620.08 1530.61,988.537 1061.17,901.609ZM509.507,712.428C478.382,701.612 444.579,692.439 412.034,686.549C314.125,668.83 227.599,680.824 259.497,767.141C279.739,821.919 411.002,856.946 513.16,856.5C510.584,807.926 509.486,759.626 509.507,712.428ZM617.819,766.295C618.136,773.513 618.487,780.748 618.872,787.976C620.775,782.946 622.666,777.79 624.549,772.506C622.576,770.465 620.325,768.391 617.819,766.295ZM683.377,552.404C663.504,561.588 640.776,568.493 616.456,573.007C615.546,606.524 615.161,641.219 615.478,676.684C627.033,684.474 637.664,692.777 647.131,701.525C660.325,655.518 672.55,604.682 683.377,552.404ZM626.434,393.405C623.349,430.511 620.589,471.234 618.595,514.606C656.233,510.271 685.66,499.556 697.092,481.365C698.62,472.849 700.108,464.333 701.549,455.853C700.881,452.271 703.194,459.78 701.549,455.853C695.131,440.539 664.067,410.664 626.434,393.405ZM528.352,358.487C511.359,353.899 494.141,349.961 477.261,346.906C379.352,329.187 292.825,341.18 324.723,427.498C340.985,471.503 428.893,502.762 515.768,513.121C519.192,456.535 523.679,404.298 528.352,358.487ZM715.474,364.817C733.566,231.387 738.696,115.343 723.308,76.908C702.553,25.064 653.831,162.574 647.196,208.701C642.315,242.634 639.158,266.372 634.344,310.743C665.853,325.803 693.917,344.102 715.474,364.817Z" style="stroke:black;stroke-width:1px;"/>
    </g>
</svg>
