<?xml version="1.0" encoding="UTF-8" standalone="no"?>
<!DOCTYPE svg PUBLIC "-//W3C//DTD SVG 1.1//EN" "http://www.w3.org/Graphics/SVG/1.1/DTD/svg11.dtd">
<svg width="100%" height="100%" viewBox="0 0 2048 2048" version="1.1" xmlns="http://www.w3.org/2000/svg" xmlns:xlink="http://www.w3.org/1999/xlink" xml:space="preserve" xmlns:serif="http://www.serif.com/" style="fill-rule:evenodd;clip-rule:evenodd;stroke-linecap:round;stroke-linejoin:round;stroke-miterlimit:1.5;">
    <g id="レイヤー5">
        <path d="M821.533,-0.186C339.05,8.028 278.906,1076.24 271.338,1230.1C121.664,1240.57 2.046,1243.28 2.046,1243.28C2.046,1243.28 117.782,1257.02 269.838,1258.86C265.795,1332.12 260.301,1398.69 252.843,1445.55C172.576,1446.92 2.178,1486.61 0.92,1567.15C0.437,1598.04 21.415,1638.55 63.602,1638.79C124.082,1639.14 337.25,1575.3 374.481,1496.56C377.114,1490.99 379.696,1484.78 382.221,1478.01C407.87,1478.44 434.266,1479.66 460.944,1481.93C590.432,1492.94 725.849,1562 817.267,1543.54C1039.76,1498.64 1434.08,1229.16 1434.08,1229.16C1434.08,1229.16 1039.46,1478.68 817.612,1515.57C728.639,1530.36 592.872,1467.43 465.74,1454.1C440.772,1451.48 416.064,1449.55 391.992,1448.17C406.528,1398.31 419.241,1329.83 430.097,1255.83C503.318,1251.94 726.82,1224.09 820.996,1162.88C944.877,1082.37 1005.62,992.397 1005.62,992.397C1137.47,874.262 1215.53,769.423 1215.73,615.648C1215.82,552.134 1174.86,512.372 1138.77,486.126C1196.39,404.428 1233.15,325.629 1235.27,272.168C1240.53,139.542 1006.94,-3.342 821.533,-0.186ZM245.464,1482.52C165.493,1488.9 36.838,1537.16 51.746,1579.52C68.875,1628.2 229.092,1540.39 245.464,1482.52C245.869,1481.09 245.071,1484.04 245.464,1482.52ZM1026.95,446.36C1056.81,388.584 1075.3,333.942 1076.5,293.673C1079.71,186.307 930.273,94.675 818.98,99.97C464.105,116.853 456.53,1061.58 435.693,1216.02C483.008,1211.12 530.208,1205.39 574.943,1198.68C569.874,1192.76 565.171,1185.91 560.885,1178.11C517.204,1098.66 640.065,968.819 706.302,927.543C772.048,886.573 943.619,836.055 975.675,862.575C996.031,879.414 998.167,900.342 999.757,926.131C996.064,932.147 1137,755.192 1108.54,638.703C1101.69,610.682 1088.26,590.111 1067.82,575.865C988.571,666.027 889.602,749.623 789.985,795.568C484.524,936.449 491.142,795.521 572.783,656.648C639.248,543.59 917.996,434.629 1026.95,446.36ZM644.218,1180.02C689.719,1171.46 796.972,1118.75 798.65,1117.97C866.389,1086.53 940.651,990.478 905.8,949.156C886.393,926.148 768.519,988.816 719.115,1025C669.747,1061.15 585.391,1163.3 644.218,1180.02ZM965.984,546.001C865.76,521.819 566.654,634.27 616.777,754.594C651.812,838.699 869.982,681.452 965.984,546.001Z" style="stroke:black;stroke-width:1px;"/>
    </g>
</svg>
