<?xml version="1.0" encoding="UTF-8" standalone="no"?>
<!DOCTYPE svg PUBLIC "-//W3C//DTD SVG 1.1//EN" "http://www.w3.org/Graphics/SVG/1.1/DTD/svg11.dtd">
<svg width="100%" height="100%" viewBox="0 0 2048 2048" version="1.1" xmlns="http://www.w3.org/2000/svg" xmlns:xlink="http://www.w3.org/1999/xlink" xml:space="preserve" xmlns:serif="http://www.serif.com/" style="fill-rule:evenodd;clip-rule:evenodd;stroke-linecap:round;stroke-linejoin:round;stroke-miterlimit:1.5;">
    <g id="レイヤー5">
        <path d="M112.569,1204.39C201.611,1425.87 430.463,1636.13 611.484,1635.54C851.728,1634.75 1436.29,1230.34 1436.29,1230.34C1436.29,1230.34 793.562,1583.39 579.509,1549.74C418.321,1524.39 207.77,1175.99 207.77,1175.99C207.77,1175.99 372.873,1117.16 425.234,1081.38C443.468,1068.92 465.322,1055.61 489.072,1041.51L491.376,1040.14C410.717,1223.66 375.729,1429.46 512.543,1504.7C618.213,1562.81 929.1,1484.83 1061.01,1347.88C1517.61,873.84 1228.62,-5.429 730.365,-2.852C338.235,-0.825 72.902,624.373 74.631,1028.11C74.849,1079 85.885,1132.28 105.192,1185.24C44.181,1213.27 0.095,1232.96 0.095,1232.96C0.095,1232.96 47.569,1222.44 112.569,1204.39ZM197.763,1142.28C197.763,1142.28 197.87,1142.69 197.763,1142.28C277.421,1104.87 362.71,1063.54 415.1,1034.4C452.446,1013.64 489.242,992.845 523.641,972.378C610.79,802.499 725.833,671.45 754.554,717.494C816.614,816.987 590.899,981.273 590.899,981.273C590.899,981.273 487.285,1367.69 560.117,1401.27C638.511,1437.41 892.563,1365.55 996.483,1187.95C1313.64,645.904 903.169,88.679 483.783,342.46C343.501,427.348 199.111,801.646 183.814,1011.9C180.822,1053.03 185.951,1097.35 197.763,1142.28ZM614.851,915.366L615.149,914.644C694.21,860.395 740.981,811.972 715.616,777.981C696.982,753.008 655.197,818.056 615.149,914.644L614.546,915.058L614.873,915.082L614.851,915.366Z" style="stroke:black;stroke-width:1px;"/>
    </g>
</svg>
