<?xml version="1.0" encoding="UTF-8" standalone="no"?>
<!DOCTYPE svg PUBLIC "-//W3C//DTD SVG 1.1//EN" "http://www.w3.org/Graphics/SVG/1.1/DTD/svg11.dtd">
<svg width="100%" height="100%" viewBox="0 0 2048 2048" version="1.1" xmlns="http://www.w3.org/2000/svg" xmlns:xlink="http://www.w3.org/1999/xlink" xml:space="preserve" xmlns:serif="http://www.serif.com/" style="fill-rule:evenodd;clip-rule:evenodd;stroke-linecap:round;stroke-linejoin:round;stroke-miterlimit:1.5;">
    <g id="レイヤー5">
        <path d="M4.275,1234.78C4.275,1234.78 311.339,777.162 361.457,580.393C394.671,449.995 540.321,157.875 719.941,158.198C897.383,158.518 917.758,322.591 917.606,443.335C917.454,563.579 618.514,816.27 616.262,928.271C613.618,1059.76 817.189,957.349 704.385,1219.01C678.13,1279.92 605.237,1363.17 603.561,1437.39C602.011,1506.03 695.744,1640.41 774.158,1640.92C919.568,1641.88 1437.37,1234.78 1437.37,1234.78C1437.37,1234.78 955.305,1525.97 861.107,1465.92C776.076,1411.71 737.132,1328.33 757.604,1228.22C772.66,1154.6 745.018,1030.67 815.208,971.28C1004.96,810.72 1181.69,651.925 1186.35,414.534C1190.18,219.755 1020.78,-1.022 720.342,6.063C346.761,14.872 312.63,362.379 265.309,594.632C218.039,826.633 21.428,1247.26 4.275,1234.78Z" style="stroke:black;stroke-width:1px;"/>
    </g>
</svg>
