<?xml version="1.0" encoding="UTF-8" standalone="no"?>
<!DOCTYPE svg PUBLIC "-//W3C//DTD SVG 1.1//EN" "http://www.w3.org/Graphics/SVG/1.1/DTD/svg11.dtd">
<svg width="100%" height="100%" viewBox="0 0 2048 2048" version="1.1" xmlns="http://www.w3.org/2000/svg" xmlns:xlink="http://www.w3.org/1999/xlink" xml:space="preserve" xmlns:serif="http://www.serif.com/" style="fill-rule:evenodd;clip-rule:evenodd;stroke-linecap:round;stroke-linejoin:round;stroke-miterlimit:1.5;">
    <g id="レイヤー4">
        <path d="M950.135,887.292C1113.79,499.308 1300.94,-7.713 1486.71,0.085C1679.93,8.195 1265.18,958.496 869.03,1409.32C864.539,1452.78 866.123,1488.45 875.287,1513.91C903.824,1593.19 1439.58,1234.64 1439.58,1234.64C1439.58,1234.64 830.012,1725.11 766.339,1601.95C756.821,1583.54 752.741,1557.79 753.261,1526.04C673.988,1594.86 598.028,1635.93 530.878,1636.34C17.9,1639.47 918.014,923.5 912.139,916.787C899.307,902.123 23.531,1210.61 23.531,1210.61C23.531,1210.61 914.452,867.827 948.732,885.978C949.354,886.307 949.82,886.747 950.135,887.292ZM942.437,905.612C903.071,999.676 866.416,1093.08 836.056,1180.03C666.162,1430.62 513.501,1616.65 458.039,1591.48C263.814,1503.34 864.578,1012.15 942.437,905.612ZM1033.47,873.396C1181.95,505.457 1379.91,30.904 1453.59,52.844C1498.55,66.231 1280.66,471.795 1033.47,873.396Z" style="stroke:black;stroke-width:1px;"/>
    </g>
</svg>
