<?xml version="1.0" encoding="UTF-8" standalone="no"?>
<!DOCTYPE svg PUBLIC "-//W3C//DTD SVG 1.1//EN" "http://www.w3.org/Graphics/SVG/1.1/DTD/svg11.dtd">
<svg width="100%" height="100%" viewBox="0 0 2048 2048" version="1.1" xmlns="http://www.w3.org/2000/svg" xmlns:xlink="http://www.w3.org/1999/xlink" xml:space="preserve" xmlns:serif="http://www.serif.com/" style="fill-rule:evenodd;clip-rule:evenodd;stroke-linecap:round;stroke-linejoin:round;stroke-miterlimit:1.5;">
    <g id="レイヤー2">
        <path d="M578.026,754.163C790.637,289.441 1367,-2.066 1450.62,-1.408C1601.94,-0.218 1550.33,375.895 1033.53,708.284C958.229,756.712 841.985,819.417 714.339,884.289C669.728,1014.41 615.873,1193.59 570.6,1370.96C601.526,1377.33 643.669,1390.84 681.243,1419.52C1110.8,1361.63 1846.38,1231.35 1846.38,1231.35C1846.38,1231.35 1157.2,1391.11 713.001,1449.18C744.615,1485.4 767.985,1537.23 769.834,1611.42C772.731,1727.68 652.366,2048.9 501.986,2050.42C413.972,2051.31 369.431,1791.38 398.499,1466.15C363.12,1460.95 343.93,1450.2 345.878,1432.54C348.664,1407.28 375.756,1391.61 407.526,1381.9C423.139,1256.78 449.375,1124.88 487.808,996.353C236.377,1117.95 5.845,1221.73 5.845,1221.73C5.845,1221.73 244.805,1102.01 498.238,962.509C520.882,891.18 547.394,821.118 578.026,754.163ZM642.283,1457.78C608.374,1461.55 576.444,1464.55 547.001,1466.63C478.447,1755.17 441.956,2013.79 517.314,2014.82C585.564,2015.76 716.592,1711.91 711.953,1612.15C708.513,1538.17 678.022,1489.54 642.283,1457.78ZM402.709,1423.38C388.789,1428.67 379.235,1434.32 379.004,1439.88C378.85,1443.6 386.324,1445.71 400.345,1446.41C401.092,1438.77 401.879,1431.1 402.709,1423.38ZM560.623,1410.58C560.623,1410.58 536.495,1402.07 560.623,1410.58C558.559,1418.89 556.518,1427.19 554.508,1435.44C569.856,1433.69 586,1431.77 602.79,1429.69C587.817,1421.22 560.623,1410.58 560.623,1410.58ZM733.98,828.523C849.364,760.332 951.822,694.823 1016.54,643.039C1206.59,490.978 1578.19,80.426 1477.97,73.802C1327.26,63.84 849.175,528.198 749.081,788.062C744.265,800.567 739.221,814.083 733.98,828.523Z" style="stroke:black;stroke-width:1px;"/>
    </g>
</svg>
