<?xml version="1.0" encoding="UTF-8" standalone="no"?>
<!DOCTYPE svg PUBLIC "-//W3C//DTD SVG 1.1//EN" "http://www.w3.org/Graphics/SVG/1.1/DTD/svg11.dtd">
<svg width="100%" height="100%" viewBox="0 0 2048 2048" version="1.1" xmlns="http://www.w3.org/2000/svg" xmlns:xlink="http://www.w3.org/1999/xlink" xml:space="preserve" xmlns:serif="http://www.serif.com/" style="fill-rule:evenodd;clip-rule:evenodd;stroke-linecap:round;stroke-linejoin:round;stroke-miterlimit:1.5;">
    <g id="レイヤー4">
        <path d="M466.32,505.399C491.288,373.849 515.221,1.028 685.875,1.095C728.942,1.112 615.229,323.403 527.72,493.644C517.793,568.625 506.015,645.015 492.928,706.493C582.735,604.855 715.631,488.207 776.326,526.474C923.876,619.503 470.538,1495.04 710.191,1493.72C811.082,1493.16 1230.74,1227.02 1230.74,1227.02C1230.74,1227.02 819.24,1612.49 702.762,1612.15C341.833,1611.11 681.426,716.069 644.409,677.739C611.465,643.627 539.421,770.599 456.311,866.458C392.306,1156.41 292.76,1638.02 205.182,1637.83C-52.917,1637.26 355.829,878.949 406.824,812.031C418.696,752.322 430.27,693.139 441.282,636.154C283.216,873.481 -0.566,1234.62 -0.566,1234.62C-0.566,1234.62 276.721,846.041 388.552,648.676C411.232,608.648 438.22,558.946 466.32,505.399ZM376.794,960.863C352.836,990.033 120.573,1577.41 215.692,1576.59C243.149,1576.35 311.04,1281.58 376.794,960.863ZM544.869,351.063C623.534,191.359 687.184,44.148 661.009,45.912C607.011,49.552 552.255,283.718 544.869,351.063Z" style="stroke:black;stroke-width:1px;"/>
    </g>
</svg>
