<?xml version="1.0" encoding="UTF-8" standalone="no"?>
<!DOCTYPE svg PUBLIC "-//W3C//DTD SVG 1.1//EN" "http://www.w3.org/Graphics/SVG/1.1/DTD/svg11.dtd">
<svg width="100%" height="100%" viewBox="0 0 2048 2048" version="1.1" xmlns="http://www.w3.org/2000/svg" xmlns:xlink="http://www.w3.org/1999/xlink" xml:space="preserve" xmlns:serif="http://www.serif.com/" style="fill-rule:evenodd;clip-rule:evenodd;stroke-linecap:round;stroke-linejoin:round;stroke-miterlimit:1.5;">
    <g id="レイヤー2">
        <path d="M842.133,413.358C354.717,411.221 163.141,1003.1 175.083,1130.76C72.788,1194.12 2.202,1235.66 2.202,1235.66C2.202,1235.66 72.353,1197.76 175.86,1138.23C191.324,1272.41 285.513,1395.73 562.217,1425.54C435.844,1685.02 290.465,2055.45 494.407,2048.7C757.623,2040 1435.19,1226.95 1435.19,1226.95C1435.19,1226.95 685.074,1980.98 549.289,1975.78C462.413,1972.46 603.357,1658.21 716.191,1432.2C1191.16,1421.21 1426.17,819.282 1105.56,823.015C860.326,825.87 651.388,1249.55 599.833,1350.26C345.758,1328.45 301.475,1188 320.422,1053.44C726.753,810.275 1322.98,415.465 842.133,413.358ZM758.707,1348.44C1155.08,1301.87 1289.58,922.157 1138.08,915.609C993.616,909.364 785.739,1296.03 758.707,1348.44ZM322.944,1037.59C669.59,815.185 1135.67,493.894 841.044,496.379C488.036,499.357 338.122,951.849 322.944,1037.59Z" style="stroke:black;stroke-width:1px;"/>
    </g>
</svg>
