<?xml version="1.0" encoding="UTF-8" standalone="no"?>
<!DOCTYPE svg PUBLIC "-//W3C//DTD SVG 1.1//EN" "http://www.w3.org/Graphics/SVG/1.1/DTD/svg11.dtd">
<svg width="100%" height="100%" viewBox="0 0 2048 2048" version="1.1" xmlns="http://www.w3.org/2000/svg" xmlns:xlink="http://www.w3.org/1999/xlink" xml:space="preserve" xmlns:serif="http://www.serif.com/" style="fill-rule:evenodd;clip-rule:evenodd;stroke-linecap:round;stroke-linejoin:round;stroke-miterlimit:1.5;">
    <g id="レイヤー3">
        <path d="M6.047,1251.46C6.047,1251.46 207.442,2051.91 302.944,2051.11C444.488,2049.93 853.142,1041.37 543.43,1052.49C478.181,1054.83 420.926,1107.03 355.646,1108.19C147.491,1111.9 395.235,418.083 1005.99,440.024C1410.01,454.538 624.155,1633.27 1233.49,1635.12C1348.42,1635.47 1439.35,1235.12 1439.35,1235.12C1439.35,1235.12 1335.03,1539.68 1246.38,1537.81C970.917,1531.98 1627.99,401.27 1015.24,401.562C212.868,401.945 136.453,1230.85 287.355,1228.99C371.497,1227.95 384.208,1177.43 459.942,1174.07C537.173,1170.64 337.47,2034.9 295.203,1988.07C231.259,1917.21 6.047,1251.46 6.047,1251.46Z" style="stroke:black;stroke-width:1px;"/>
    </g>
</svg>
