<?xml version="1.0" encoding="UTF-8" standalone="no"?>
<!DOCTYPE svg PUBLIC "-//W3C//DTD SVG 1.1//EN" "http://www.w3.org/Graphics/SVG/1.1/DTD/svg11.dtd">
<svg width="100%" height="100%" viewBox="0 0 2048 2048" version="1.1" xmlns="http://www.w3.org/2000/svg" xmlns:xlink="http://www.w3.org/1999/xlink" xml:space="preserve" xmlns:serif="http://www.serif.com/" style="fill-rule:evenodd;clip-rule:evenodd;stroke-linecap:round;stroke-linejoin:round;stroke-miterlimit:1.5;">
    <g id="レイヤー2">
        <path d="M438.652,1034.83C462.339,773.38 460.158,516.521 398.871,517.268C322.842,518.195 -1.616,1227.65 -1.616,1227.65C-1.616,1227.65 265.186,405.342 407.702,403.974C533.289,402.769 572.266,581.349 563.617,802.632C684.114,596.167 824.951,408.428 937.354,411.585C997.264,413.267 1032.12,606.637 1039.65,839.321C1113.9,736.94 1204.83,662.11 1312.34,660.443C1644.46,655.293 1563.89,1435.94 1686.38,1530.91C1806.07,1623.69 2047.29,1230.24 2047.29,1230.24C2047.29,1230.24 1844.26,1640.82 1702.78,1640.03C1245.64,1637.49 1440.57,753.823 1298.77,751.102C1200.79,749.223 1112.67,846.987 1041.03,969.108C1037.71,1292.92 984.679,1636.25 876.492,1637.56C695.267,1639.77 838.673,1230.63 924.011,1043.44C929.764,772.593 917.638,500.039 876.142,500.001C815.314,499.945 672.678,733.622 551.233,954.943C512.1,1282.73 396.234,1634.73 311.349,1632.33C191.026,1628.92 301.847,1329.53 301.847,1329.53L302.128,1328.86C306.446,1318.6 360.224,1191.4 438.652,1034.83ZM419.854,1203.55C392.704,1408.08 353.232,1579.12 319.332,1580.44C265.584,1582.53 352.257,1342.18 352.257,1342.18L350.552,1341.75C355.23,1332.18 381.321,1278.97 419.854,1203.55ZM921.098,1206.92C910.839,1396.68 887.909,1576.62 865.604,1577.28C786.212,1579.63 878.509,1319.01 921.098,1206.92Z" style="stroke:black;stroke-width:1px;"/>
    </g>
</svg>
