<?xml version="1.0" encoding="UTF-8" standalone="no"?>
<!DOCTYPE svg PUBLIC "-//W3C//DTD SVG 1.1//EN" "http://www.w3.org/Graphics/SVG/1.1/DTD/svg11.dtd">
<svg width="100%" height="100%" viewBox="0 0 2048 2048" version="1.1" xmlns="http://www.w3.org/2000/svg" xmlns:xlink="http://www.w3.org/1999/xlink" xml:space="preserve" xmlns:serif="http://www.serif.com/" style="fill-rule:evenodd;clip-rule:evenodd;stroke-linejoin:round;stroke-miterlimit:2;">
    <g id="レイヤー2">
        <path d="M333.409,500.466C339.021,574.806 80.559,1581.6 280.58,1588.61C371.45,1591.8 710.258,285.551 899.389,494.206C989.509,593.63 564.784,2042.6 1023.22,2043.73C1219.05,2044.22 1441.2,1241.4 1441.2,1241.4C1441.2,1241.4 1140.91,1972.77 1040.28,1973.41C812.118,1974.85 1357.48,406.015 902.023,407.283C579.226,408.181 325.147,1445.88 281.772,1513.89C215.855,1617.25 564.132,424.501 391.077,411.37C240.179,399.921 0.513,1231.33 0.513,1231.33C0.513,1231.33 327.715,425.019 333.409,500.466"/>
    </g>
</svg>
