<?xml version="1.0" encoding="UTF-8" standalone="no"?>
<!DOCTYPE svg PUBLIC "-//W3C//DTD SVG 1.1//EN" "http://www.w3.org/Graphics/SVG/1.1/DTD/svg11.dtd">
<svg width="100%" height="100%" viewBox="0 0 2048 2048" version="1.1" xmlns="http://www.w3.org/2000/svg" xmlns:xlink="http://www.w3.org/1999/xlink" xml:space="preserve" xmlns:serif="http://www.serif.com/" style="fill-rule:evenodd;clip-rule:evenodd;stroke-linecap:round;stroke-linejoin:round;stroke-miterlimit:1.5;">
    <g id="レイヤー4">
        <path d="M1130.14,409.01C1047.97,410.871 788.133,548.085 663.314,779.924C607.253,884.052 571.217,985.453 552.905,1079.84C376.231,1161.83 203.537,1228.66 203.537,1228.66C203.537,1228.66 366.724,1194.31 543.315,1141.46C510.194,1426.2 644.827,1634.01 876.745,1636.25C1026.25,1637.69 1433.74,1228.41 1433.74,1228.41C1433.74,1228.41 1023.58,1612.88 877.406,1610.35C618.611,1605.85 619.407,1354.17 697.899,1090.76C799.491,1053.88 890.408,1012.15 939.617,968.855C1409.36,555.567 1224.63,406.869 1130.14,409.01ZM730.805,991.4C794.745,956.746 849.886,922.547 885.341,892.131C1015.25,780.685 1215.78,431.116 1129.67,434.159C1091.72,435.499 891.618,596.11 781.161,864.863C764.18,906.18 746.389,948.387 730.805,991.4Z" style="stroke:black;stroke-width:1px;"/>
    </g>
</svg>
