<?xml version="1.0" encoding="UTF-8" standalone="no"?>
<!DOCTYPE svg PUBLIC "-//W3C//DTD SVG 1.1//EN" "http://www.w3.org/Graphics/SVG/1.1/DTD/svg11.dtd">
<svg width="100%" height="100%" viewBox="0 0 2048 2048" version="1.1" xmlns="http://www.w3.org/2000/svg" xmlns:xlink="http://www.w3.org/1999/xlink" xml:space="preserve" xmlns:serif="http://www.serif.com/" style="fill-rule:evenodd;clip-rule:evenodd;stroke-linecap:round;stroke-linejoin:round;stroke-miterlimit:1.5;">
    <g id="レイヤー1">
        <path d="M1307.39,411.578C694.611,409.251 445.875,1470.03 627.096,1577.63C470.597,1568.37 321.293,1380.21 320.179,1222.59C318.83,1031.51 701.765,399.89 482.761,411.853C438.181,414.288 -1.104,1229.01 -1.104,1229.01C-1.104,1229.01 461.447,461.326 458.221,491.502C452.768,542.503 182.042,951.824 180.971,1231.11C180.228,1424.96 416.266,1640.39 613.944,1639.49C650.068,1639.32 685.579,1635.66 720.421,1628.87C749.051,1634.36 781.366,1637.38 817.78,1637.47C993.339,1637.89 1634.35,1225.73 1634.35,1225.73C1634.35,1225.73 1113.27,1515.22 888.841,1570.23C1403.8,1310.52 1688.31,413.024 1307.39,411.578ZM732.494,1566.3C1178.12,1418.34 1483.64,441.654 1286.74,441.781C916.508,442.018 533.918,1497.69 732.494,1566.3Z" style="stroke:black;stroke-width:1px;"/>
    </g>
</svg>
