<?xml version="1.0" encoding="UTF-8" standalone="no"?>
<!DOCTYPE svg PUBLIC "-//W3C//DTD SVG 1.1//EN" "http://www.w3.org/Graphics/SVG/1.1/DTD/svg11.dtd">
<svg width="100%" height="100%" viewBox="0 0 2048 2048" version="1.1" xmlns="http://www.w3.org/2000/svg" xmlns:xlink="http://www.w3.org/1999/xlink" xml:space="preserve" xmlns:serif="http://www.serif.com/" style="fill-rule:evenodd;clip-rule:evenodd;stroke-linecap:round;stroke-linejoin:round;stroke-miterlimit:1.5;">
    <g id="レイヤー2">
        <path d="M310.549,868.097C360.013,528.713 412.421,1.931 584.805,0.296C695.731,-0.755 550.625,441.973 445.485,704.48C404.622,1101.91 369.373,1588.58 441.919,1587.89C634.185,1586.05 823.67,1228.47 823.67,1228.47C823.67,1228.47 620.527,1636.14 411.282,1637.04C171.152,1638.06 293.935,965.922 293.935,965.922C175.682,1108.68 0.698,1229.52 0.698,1229.52C0.698,1229.52 192.149,1031.28 310.549,868.097ZM458.116,585.719C543.801,358.298 636.985,57.287 572.665,60.563C524.609,63.011 478.759,397.612 458.116,585.719Z" style="stroke:black;stroke-width:1px;"/>
    </g>
</svg>
