<?xml version="1.0" encoding="UTF-8" standalone="no"?>
<!DOCTYPE svg PUBLIC "-//W3C//DTD SVG 1.1//EN" "http://www.w3.org/Graphics/SVG/1.1/DTD/svg11.dtd">
<svg width="100%" height="100%" viewBox="0 0 2048 2048" version="1.1" xmlns="http://www.w3.org/2000/svg" xmlns:xlink="http://www.w3.org/1999/xlink" xml:space="preserve" xmlns:serif="http://www.serif.com/" style="fill-rule:evenodd;clip-rule:evenodd;stroke-linecap:round;stroke-linejoin:round;stroke-miterlimit:1.5;">
    <g id="レイヤー4">
        <path d="M590.292,1247.26C811.229,814.726 1131.13,94.477 1024.45,84.705C792.852,63.49 190.586,879.526 190.586,879.526L490.534,145.531C490.534,145.531 368.976,360.456 318.12,472.775C236.498,653.044 0.802,1227.14 0.802,1227.14C0.802,1227.14 233.836,540.215 321.051,336.679C371.76,218.337 503.342,1.639 538.779,2.697C580.019,3.927 504.268,217.68 466.638,320.249C423.931,436.656 282.538,701.139 282.538,701.139C282.538,701.139 749.962,15.399 1110.95,0.536C1520.55,-16.329 732.183,1221.99 732.183,1221.99C732.183,1221.99 712.686,1213.18 794.7,1204.42C944.102,1188.47 1234.03,1226.95 1234.03,1226.95C1234.03,1226.95 928.005,1262.5 792.028,1293.83C673.955,1321.04 662.254,1327.82 656.849,1329.24C537.442,1511.21 481.224,1636.19 373.893,1636.96C-140.281,1640.65 564.745,1260.6 590.292,1247.26ZM526.918,1368.48C462.646,1488.17 416.669,1555.14 384.752,1555.6C227.139,1557.83 510.182,1380.36 526.918,1368.48C546.679,1331.68 567.981,1290.94 590.292,1247.26C590.76,1247.02 591,1246.89 591,1246.89L527.735,1367.9L526.918,1368.48Z" style="stroke:black;stroke-width:1px;"/>
    </g>
</svg>
