<?xml version="1.0" encoding="UTF-8" standalone="no"?>
<!DOCTYPE svg PUBLIC "-//W3C//DTD SVG 1.1//EN" "http://www.w3.org/Graphics/SVG/1.1/DTD/svg11.dtd">
<svg width="100%" height="100%" viewBox="0 0 2048 2048" version="1.1" xmlns="http://www.w3.org/2000/svg" xmlns:xlink="http://www.w3.org/1999/xlink" xml:space="preserve" xmlns:serif="http://www.serif.com/" style="fill-rule:evenodd;clip-rule:evenodd;stroke-linecap:round;stroke-linejoin:round;stroke-miterlimit:1.5;">
    <g id="レイヤー3">
        <path d="M956.477,1562.28C996.942,1559.25 1032.19,1552.9 1059.29,1542.2C1276.58,1456.36 1433.36,1233.58 1433.36,1233.58C1433.36,1233.58 1219.68,1631.83 1024.91,1638.81C742.56,1648.94 298.441,1592.89 298.441,1592.89C298.441,1592.89 203.077,1636.8 180.73,1636.94C-73.398,1638.55 225.155,1260.07 513.891,945.239C733.111,706.211 1043.4,527.749 864.895,531.093C656.161,535.005 3.975,1247.22 3.975,1247.22C3.975,1247.22 613.489,405.088 950.985,406.894C1524.06,409.959 772.865,746.492 576.197,1022.49C545.829,1065.1 518.079,1106.53 492.936,1145.94C632.663,1014.61 843.52,855.638 1027.85,877.563C1440.9,926.694 1332.19,1370.27 1048.5,1526.5C1020.63,1541.85 989.522,1553.55 956.477,1562.28ZM308.505,1485.06C308.505,1485.06 830.494,1592.98 1056.19,1456.2C1249.04,1339.32 1248.12,1011.14 1017.62,943.356C840.039,891.133 559.612,1136.84 407.235,1289.08C341.132,1407.05 308.505,1485.06 308.505,1485.06Z" style="stroke:black;stroke-width:1px;"/>
    </g>
</svg>
