<?xml version="1.0" encoding="UTF-8" standalone="no"?>
<!DOCTYPE svg PUBLIC "-//W3C//DTD SVG 1.1//EN" "http://www.w3.org/Graphics/SVG/1.1/DTD/svg11.dtd">
<svg width="100%" height="100%" viewBox="0 0 2048 2048" version="1.1" xmlns="http://www.w3.org/2000/svg" xmlns:xlink="http://www.w3.org/1999/xlink" xml:space="preserve" xmlns:serif="http://www.serif.com/" style="fill-rule:evenodd;clip-rule:evenodd;stroke-linecap:round;stroke-linejoin:round;stroke-miterlimit:1.5;">
    <g id="レイヤー2">
        <path d="M80.745,2047.47L81.231,2047.49C236.555,2052.56 532.357,1747.27 780.627,1417.59C816.381,1399.32 858.073,1379.98 901.403,1360.92C1056.37,1292.76 1232.27,1228.14 1232.27,1228.14C1232.27,1228.14 989.272,1296.46 819.686,1365C1089.44,996.593 1288.14,616.818 1157.64,618.356C994.008,620.284 595.543,1139.26 466.131,1144.23C363.486,1148.17 923.197,407.88 622.228,409.695C534.321,410.225 1.871,1233.98 1.871,1233.98C1.871,1233.98 542.832,453.137 611.055,451.223C679.278,449.309 117.977,1226.33 410.801,1228.62C561.765,1229.8 897.801,752.934 1048.33,756.561C1093.05,757.638 790.602,1185.78 524.311,1532.62C418.202,1606.52 -150.784,2048.87 80.745,2047.47ZM446.887,1632.45C365.016,1695 35.667,1969.06 151.838,1967.38C174.851,1967.05 298.32,1821.97 446.887,1632.45Z" style="stroke:black;stroke-width:1px;"/>
    </g>
</svg>
