<?xml version="1.0" encoding="UTF-8" standalone="no"?>
<!DOCTYPE svg PUBLIC "-//W3C//DTD SVG 1.1//EN" "http://www.w3.org/Graphics/SVG/1.1/DTD/svg11.dtd">
<svg width="100%" height="100%" viewBox="0 0 2048 2048" version="1.1" xmlns="http://www.w3.org/2000/svg" xmlns:xlink="http://www.w3.org/1999/xlink" xml:space="preserve" xmlns:serif="http://www.serif.com/" style="fill-rule:evenodd;clip-rule:evenodd;stroke-linecap:round;stroke-linejoin:round;stroke-miterlimit:1.5;">
    <g transform="matrix(1,0,0,1.32787,0,-133.792)">
        <g id="レイヤー2">
            <path d="M549.357,1001.44C368.305,983.46 206.779,1026.44 206.779,1026.44C206.779,1026.44 372.396,1002.73 543.73,1023.6C541.711,1046.73 526.66,1203.14 527.315,1226.31C533.17,1433.51 719.891,1639.15 1024.39,1640.68C1318.02,1642.16 1643.72,1029.51 1643.72,1029.51C1643.72,1029.51 1370.49,1541.91 1021.64,1553.59C842.531,1559.59 685.651,1459.6 684.965,1230.38C684.851,1192.39 694.53,1082.39 714.016,1040.56C789.449,1038.12 850.361,1036.11 937.236,1015.14C935.529,1050.53 940.024,1161.03 1028.83,1162.85C1135.14,1165.02 1234.38,1030.66 1285.51,899.171C1457.83,825.492 1564.34,774.004 1565.57,690.705C1566.26,644.029 1442.49,631.84 1327.82,641.315C1332.42,511.311 1360.05,407.669 1230.2,408.068C878.186,409.151 589.75,626.783 549.357,1001.44ZM1154.17,931.733C1105.99,949.125 1041.8,985.833 990.913,1001.9C988.108,1030.14 983.315,1111.97 1037.7,1111.28C1065.74,1110.92 1121.82,1007.13 1154.17,931.733ZM1224.76,656.685C1240.32,551.116 1219.01,491.866 1173.91,491.341C1067.82,490.107 807.929,710.943 722.582,1017.1C810.536,1024.08 858.142,1011.63 936.301,993.178C936.324,992.91 955.343,757.377 1179.03,670.306C1192.04,665.244 1207.54,660.679 1224.76,656.685ZM1207.18,749.053C1198.14,752.631 1189.38,756.371 1181.03,760.24C993.358,847.142 993.273,977.286 993.273,977.286C1047.48,959.184 1109.93,925.463 1159.52,906.783C1183.46,845.487 1191.36,818.265 1207.18,749.053ZM1293.3,871.573C1415.17,817.137 1483.98,788.61 1484.62,742.98C1485.2,701.669 1407.66,698.584 1321.74,715.595C1314.2,775.579 1313.15,813.071 1293.3,871.573Z" style="stroke:black;stroke-width:0.85px;"/>
        </g>
    </g>
</svg>
