<?xml version="1.0" encoding="UTF-8" standalone="no"?>
<!DOCTYPE svg PUBLIC "-//W3C//DTD SVG 1.1//EN" "http://www.w3.org/Graphics/SVG/1.1/DTD/svg11.dtd">
<svg width="100%" height="100%" viewBox="0 0 2048 2048" version="1.1" xmlns="http://www.w3.org/2000/svg" xmlns:xlink="http://www.w3.org/1999/xlink" xml:space="preserve" xmlns:serif="http://www.serif.com/" style="fill-rule:evenodd;clip-rule:evenodd;stroke-linecap:round;stroke-linejoin:round;stroke-miterlimit:1.5;">
    <g id="レイヤー4">
        <path d="M705.718,983.783C502.822,1130.98 24.057,1230.57 24.057,1230.57C24.057,1230.57 454.387,1180.93 675.232,1048.63C628.934,1160.99 571.34,1259.26 571.302,1389.65C571.25,1564.17 710.951,1641.38 812.819,1639.86C1130.12,1635.13 1630.28,1236.94 1630.28,1236.94C1630.28,1236.94 977.133,1544.95 830.246,1507.85C672.622,1468.03 768.558,1168.7 892.601,900.065C1108.48,724.308 1490.52,412.391 1310.12,407.746C1139.34,403.349 840.982,701.596 705.718,983.783ZM917.736,815.41C1096.11,665.867 1321.97,467.223 1312.25,453.13C1299.44,434.577 1166.88,498.45 1107.9,551.998C1048.91,605.547 976.318,695.474 917.736,815.41Z" style="stroke:black;stroke-width:1px;"/>
    </g>
</svg>
