<?xml version="1.0" encoding="UTF-8" standalone="no"?>
<!DOCTYPE svg PUBLIC "-//W3C//DTD SVG 1.1//EN" "http://www.w3.org/Graphics/SVG/1.1/DTD/svg11.dtd">
<svg width="100%" height="100%" viewBox="0 0 2048 2048" version="1.1" xmlns="http://www.w3.org/2000/svg" xmlns:xlink="http://www.w3.org/1999/xlink" xml:space="preserve" xmlns:serif="http://www.serif.com/" style="fill-rule:evenodd;clip-rule:evenodd;stroke-linecap:round;stroke-linejoin:round;stroke-miterlimit:1.5;">
    <g id="レイヤー2">
        <path d="M472.14,403.876C498.698,314.975 545.926,204.048 616.353,203.364C719.473,202.362 719.779,279.169 666.018,391.056C747.078,398.495 821.359,417.557 820.589,443.267C820.412,449.181 723.304,446.822 634.178,450.91C603.204,504.593 563.453,563.613 518.997,624.412C475.041,907.995 402.496,1432.48 457.289,1490.35C531.438,1568.66 815.282,1227.45 815.282,1227.45C815.282,1227.45 514.238,1636.49 407.538,1635.75C204.606,1634.34 274.751,1175.68 355.606,832.8C181.14,1043.43 6.071,1225.71 6.071,1225.71C6.071,1225.71 201.737,977.614 379.858,734.229C410.975,612.634 439.785,516.933 451.044,480.433C338.326,511.243 195.775,559.92 193.507,553.913C185.685,533.204 359.235,438.711 472.14,403.876ZM575.244,454.93C564.78,455.955 554.871,457.147 545.748,458.541C543.773,470.255 540.667,488.839 536.739,512.89C550.376,492.76 563.271,473.368 575.244,454.93ZM617.061,388.026C673.103,293.773 687.564,243.709 622.254,283.109C610.7,290.079 588.784,340.375 570.069,388.022C585.103,387.498 600.949,387.512 617.061,388.026Z" style="stroke:black;stroke-width:1px;"/>
    </g>
</svg>
