<?xml version="1.0" encoding="UTF-8" standalone="no"?>
<!DOCTYPE svg PUBLIC "-//W3C//DTD SVG 1.1//EN" "http://www.w3.org/Graphics/SVG/1.1/DTD/svg11.dtd">
<svg width="100%" height="100%" viewBox="0 0 2048 2048" version="1.1" xmlns="http://www.w3.org/2000/svg" xmlns:xlink="http://www.w3.org/1999/xlink" xml:space="preserve" xmlns:serif="http://www.serif.com/" style="fill-rule:evenodd;clip-rule:evenodd;stroke-linecap:round;stroke-linejoin:round;stroke-miterlimit:1.5;">
    <g id="レイヤー2">
        <path d="M25.306,1175.17L-1.269,1228.17C1.058,1229.24 10.566,1209.37 25.306,1175.17L356.295,515.012C356.295,515.012 -23.815,1641.81 415.82,1640.02C480.754,1639.76 579.142,1392.71 770.955,1163.4C833.611,1088.5 904.494,1012 975.494,937.807C958.38,1117.71 998.762,1300.62 1230.18,1309.31C1291.11,1311.6 1426.57,1231.25 1426.57,1231.25C1426.57,1231.25 1296.35,1281.59 1232.07,1278.84C1034.85,1270.42 1093.79,955.255 1150.58,757.343C1344.11,557.725 1478.93,407.253 1345.38,407.299C1170.76,407.36 1009.48,718.969 984.131,872.136C902.08,955.705 815.358,1045.66 734.575,1135.88C560.049,1330.81 477.141,1582.86 421.898,1583.09C204.592,1583.99 442.449,404.776 410.707,405.898C328.989,408.785 103.513,993.706 25.306,1175.17ZM1174.79,678.603C1302.39,547.518 1380.21,458.625 1333.91,454.74C1279.44,450.17 1180.69,660.622 1174.79,678.603Z" style="stroke:black;stroke-width:1px;"/>
    </g>
</svg>
