<?xml version="1.0" encoding="UTF-8" standalone="no"?>
<!DOCTYPE svg PUBLIC "-//W3C//DTD SVG 1.1//EN" "http://www.w3.org/Graphics/SVG/1.1/DTD/svg11.dtd">
<svg width="100%" height="100%" viewBox="0 0 2048 2048" version="1.1" xmlns="http://www.w3.org/2000/svg" xmlns:xlink="http://www.w3.org/1999/xlink" xml:space="preserve" xmlns:serif="http://www.serif.com/" style="fill-rule:evenodd;clip-rule:evenodd;stroke-linecap:round;stroke-linejoin:round;stroke-miterlimit:1.5;">
    <g id="レイヤー2">
        <path d="M1365.22,976.336C1330.17,838.917 1312.98,413.607 1499.05,405.376C1618.78,400.079 1600.58,765.016 1471.71,1088.11C1541.73,1210.51 1633.02,1230.32 1633.02,1230.32C1633.02,1230.32 1533.34,1215.49 1452.56,1133.94C1346.92,1375.48 1178.37,1583.84 958.988,1583.25C545.353,1582.12 670.909,1057.61 608.975,983.873C579.941,1300.34 497.925,1636.29 408.046,1635.74C231.076,1634.66 329.326,1071.72 470.397,956.783C487.513,753.979 494.137,570.449 467.756,524.69C429.336,458.048 4.896,1227.78 4.896,1227.78C4.896,1227.78 380.582,409.03 518.468,411.205C609.095,412.635 632.078,647.266 614.746,910.741C696.358,959.824 579.776,1508.85 960.535,1518.5C1079.63,1521.52 1257.36,1270.79 1376.03,1011.65C1372,1000.45 1368.37,988.689 1365.22,976.336ZM461.901,1050.62C414.184,1119.1 363.316,1279.64 359.811,1405.87C356.757,1515.88 398.099,1599.56 400.869,1577.18C409.561,1506.94 440.032,1278.11 461.901,1050.62ZM1468.74,472.432C1363.22,471.92 1400.73,870.494 1412.66,926.736C1494.4,724.581 1542.82,472.792 1468.74,472.432Z" style="stroke:black;stroke-width:1px;"/>
    </g>
</svg>
