<?xml version="1.0" encoding="UTF-8" standalone="no"?>
<!DOCTYPE svg PUBLIC "-//W3C//DTD SVG 1.1//EN" "http://www.w3.org/Graphics/SVG/1.1/DTD/svg11.dtd">
<svg width="100%" height="100%" viewBox="0 0 2048 2048" version="1.1" xmlns="http://www.w3.org/2000/svg" xmlns:xlink="http://www.w3.org/1999/xlink" xml:space="preserve" xmlns:serif="http://www.serif.com/" style="fill-rule:evenodd;clip-rule:evenodd;stroke-linecap:round;stroke-linejoin:round;stroke-miterlimit:1.5;">
    <g id="レイヤー2" transform="matrix(0.896284,0,0,0.896284,5.26335,-62.8881)">
        <path d="M663.855,800.812C840.861,416.136 1255.78,19.977 1294.12,76.8C1330.63,130.912 1192.06,417.302 1071.57,589.339C1054.72,613.394 976.275,709.161 957.518,729.965C1116.3,681.499 1290.36,649.358 1342.08,695.466C1607.5,932.044 1248.54,1245.53 984.327,1450.92C863.609,1544.76 726.21,1568.53 726.21,1568.53L726.451,1567.14C692.25,1569.27 548.138,1559.24 555.495,1237.43C556.961,1173.31 565.231,1110.25 578.878,1048.74C468.59,1148.27 373.289,1278.6 325.195,1497.63C298.197,1620.58 341.532,1742.68 460.593,1725.92C761.228,1683.61 2055.61,1437.57 2055.61,1437.57C2055.61,1437.57 637.161,1899.47 322.075,1900.2C186.247,1900.52 98.571,1597.7 163.273,1457.21C242.098,1286.07 278.008,1229.34 348.279,1135.29C161.771,1256.47 -6.488,1434.1 -6.488,1434.1C-6.488,1434.1 303.304,1043.65 502.585,927.183C507.885,924.086 513.349,920.948 518.99,917.764C569.737,869.555 617.995,833.221 663.855,800.812ZM753.155,1528.47C781.388,1523.8 841.961,1500.71 950.19,1403.85C1142.33,1231.9 1272.56,1062.01 1245.6,825.022C1238.9,766.081 989.768,840.352 715.951,940.665C695.4,955.437 674.916,970.446 654.659,986.014C633.344,1062.24 616.68,1143.4 606.347,1229.35C569.831,1533.09 753.277,1528.23 753.277,1528.23L753.155,1528.47ZM742.586,745.889C797.459,706.972 848.531,666.808 895.991,608.953C1029.68,445.983 1322.77,122.288 1275.62,101.245C1241.71,86.111 907.163,385.621 742.586,745.889Z" style="stroke:black;stroke-width:1.12px;"/>
    </g>
</svg>
