<?xml version="1.0" encoding="UTF-8" standalone="no"?>
<!DOCTYPE svg PUBLIC "-//W3C//DTD SVG 1.1//EN" "http://www.w3.org/Graphics/SVG/1.1/DTD/svg11.dtd">
<svg width="100%" height="100%" viewBox="0 0 2048 2048" version="1.1" xmlns="http://www.w3.org/2000/svg" xmlns:xlink="http://www.w3.org/1999/xlink" xml:space="preserve" xmlns:serif="http://www.serif.com/" style="fill-rule:evenodd;clip-rule:evenodd;stroke-linecap:round;stroke-linejoin:round;stroke-miterlimit:1.5;">
    <g id="レイヤー2">
        <path d="M616.42,611.784C642.028,580.198 931.381,412.767 1157.01,411.217C1256.45,410.534 1343.51,442.07 1390.17,531.652C1497.5,737.73 1402.32,978.193 1238.51,1181.44C1363.16,1213.16 1640.01,1228.55 1640.01,1228.55C1640.01,1228.55 1354.5,1217.21 1227.52,1194.89C990.876,1480.69 773.479,1632.03 442.392,1633.97C248.432,1635.1 181.859,1482.77 228.994,1299.46C297.266,1033.93 550.254,705.876 550.254,705.876L1.801,1228.66L616.42,611.784ZM564.625,713.244C424.267,952.53 285.749,1456.12 468.353,1561.69C646.354,1664.59 904.471,1447.41 1099.09,1167.88C871.753,1111.46 643.361,1004.78 570.91,803.15C559.628,771.751 558.696,741.57 564.625,713.244ZM1115.26,1144.36C1275.08,908.905 1388.06,657.594 1349.96,588.248C1204.87,324.164 500.338,645.135 634.845,825.113C762.122,995.418 948.134,1085.83 1115.26,1144.36Z" style="stroke:black;stroke-width:1px;"/>
    </g>
</svg>
