<?xml version="1.0" encoding="UTF-8" standalone="no"?>
<!DOCTYPE svg PUBLIC "-//W3C//DTD SVG 1.1//EN" "http://www.w3.org/Graphics/SVG/1.1/DTD/svg11.dtd">
<svg width="100%" height="100%" viewBox="0 0 2048 2048" version="1.1" xmlns="http://www.w3.org/2000/svg" xmlns:xlink="http://www.w3.org/1999/xlink" xml:space="preserve" xmlns:serif="http://www.serif.com/" style="fill-rule:evenodd;clip-rule:evenodd;stroke-linecap:round;stroke-linejoin:round;stroke-miterlimit:1.5;">
    <g id="レイヤー2">
        <path d="M346.832,726.44C378.489,536.975 418.778,9.568 617.678,0.485C767.175,-6.342 594.508,327.553 478.844,544.836C464.435,663.147 438.029,850.876 425.853,989.237C593.138,846.624 1160.15,385.809 1544.94,730.398C1681.41,852.604 1244.19,1274.61 1094.77,1417.81C1357.74,1329.87 1637.86,1231.55 1637.86,1231.55C1637.86,1231.55 1233.19,1646.88 615.308,1641.95C466.445,1640.76 309.453,1485.72 288.331,1338.54C273.565,1235.65 301.844,1006.63 336.073,792.259C201.196,993.151 6.208,1230.72 6.208,1230.72C6.208,1230.72 225.846,928.551 346.832,726.44ZM1045.26,1423.98C1045.26,1423.98 756.599,1489.02 678.27,1495.01C559.492,1504.1 434.915,1434.41 422.024,1315.98C416.004,1260.67 413.837,1222.98 421.72,1112.24C598.461,982.269 1163.74,570.128 1469.05,768.266C1644.07,881.851 1045.26,1423.98 1045.26,1423.98ZM492.908,432.342C574.267,247.364 653.412,40.928 632.728,41.59C543.848,44.434 501.802,363.001 492.908,432.342Z" style="stroke:black;stroke-width:1px;"/>
    </g>
</svg>
