<?xml version="1.0" encoding="UTF-8" standalone="no"?>
<!DOCTYPE svg PUBLIC "-//W3C//DTD SVG 1.1//EN" "http://www.w3.org/Graphics/SVG/1.1/DTD/svg11.dtd">
<svg width="100%" height="100%" viewBox="0 0 2048 2048" version="1.1" xmlns="http://www.w3.org/2000/svg" xmlns:xlink="http://www.w3.org/1999/xlink" xml:space="preserve" xmlns:serif="http://www.serif.com/" style="fill-rule:evenodd;clip-rule:evenodd;stroke-linecap:round;stroke-linejoin:round;stroke-miterlimit:1.5;">
    <g id="レイヤー2">
        <path d="M315.485,1445.53C245.956,1486.5 30.069,1638.15 145.16,1636.95C188.897,1636.49 354.151,1607.39 371.269,1532.52C375.939,1512.09 384.212,1482.54 394.768,1446.15C469.348,1403.66 565.634,1349.59 669.962,1292.85C648.489,1359.91 621.459,1435.17 592.243,1494.74C551.893,1510.07 241.888,1639.83 462.988,1639.7C498.637,1639.68 546.831,1617.18 594.866,1581.39C620.792,1562.07 622.476,1541.59 636.263,1520.55C777.168,1467.66 1020.7,1370.35 1253.85,1248.77C1293.06,1285.8 1350.41,1311.37 1434.1,1310.54C1551.21,1309.38 1847.8,1229.85 1847.8,1229.85C1847.8,1229.85 1552.37,1273.82 1431.77,1272.33C1370.27,1271.56 1326.66,1253.56 1295.94,1226.49C1396.4,1172.49 1493.6,1114.17 1578.33,1053.17C1955.46,781.644 1866.94,406.271 1562.24,414.069C1449.54,416.954 1353.39,517.468 1302.07,583.713C1269.44,480.997 1194.02,406.658 1087.53,412.966C859.935,426.448 703.039,1183.34 689.8,1228.25C585.595,1287.97 489.791,1343.5 411.396,1389.28C506.659,1064.46 699.276,413.652 403.869,408.11C257.422,405.362 9.557,1228.76 9.557,1228.76C9.557,1228.76 263.179,620.93 337.634,624.845C477.678,632.209 366.732,1197.51 315.485,1445.53ZM562.835,1547.55C532.638,1558.4 436.104,1605.14 477.869,1601.8C498.761,1600.13 541.887,1579.82 562.835,1547.55ZM304.54,1497.94C266.39,1520.02 163.434,1603.57 196.091,1602.01C223.864,1600.68 289.115,1571.17 298.233,1527.84C299.959,1519.64 302.084,1509.6 304.54,1497.94ZM1170.41,1026.76C1147.18,1045.34 1121.03,1061.84 1091.86,1075.68C983.232,1127.19 863.344,1189.02 748.748,1250.34C731.068,1314.44 704.628,1394.41 668.28,1465.16C811.199,1408.31 1024.65,1316.43 1218.45,1205.47C1179.78,1144.21 1171.49,1070.59 1170.41,1026.76ZM765.26,1185.12C830.353,1148.01 897.791,1109.82 965.531,1071.8C1199.84,940.307 1193,613.958 1083.96,616.398C925.256,619.951 770.635,1161.83 765.26,1185.12ZM1259.62,1181.42C1325.29,1142.27 1387.88,1100.97 1443.68,1058.2C1657.38,894.381 1629.97,620.694 1548.29,614.752C1432.95,606.362 1360.21,704.097 1319,732.996C1317.82,821.38 1290.64,891.627 1230.21,967.023C1225.34,1001.65 1215.8,1104.57 1259.62,1181.42Z" style="stroke:black;stroke-width:1px;"/>
    </g>
</svg>
