<?xml version="1.0" encoding="UTF-8" standalone="no"?>
<!DOCTYPE svg PUBLIC "-//W3C//DTD SVG 1.1//EN" "http://www.w3.org/Graphics/SVG/1.1/DTD/svg11.dtd">
<svg width="100%" height="100%" viewBox="0 0 2048 2048" version="1.1" xmlns="http://www.w3.org/2000/svg" xmlns:xlink="http://www.w3.org/1999/xlink" xml:space="preserve" xmlns:serif="http://www.serif.com/" style="fill-rule:evenodd;clip-rule:evenodd;stroke-linecap:round;stroke-linejoin:round;stroke-miterlimit:1.5;">
    <g id="レイヤー2">
        <path d="M592.897,784.9C592.102,1035.87 1168.56,1120.62 1168.56,1120.62C989.916,1348.07 709.389,1595.19 417.82,1594.88C145.806,1594.59 576.461,718.129 610.259,615.625C641.367,521.281 344.236,866.939 247.745,970.015C164.874,1058.54 3.131,1240.37 3.131,1240.37C3.131,1240.37 183.584,1082.01 267.767,997.262C361.717,902.683 566.834,672.901 566.834,672.901C566.834,672.901 250.087,1032.05 197.987,1198.68C150.064,1351.94 117.951,1638.5 416.202,1637.56C922.42,1635.95 1189.3,1394.05 1321.56,1152.75L1640.74,1229.64L1330.26,1136.52C1406.71,990.495 1434.68,846.708 1437.41,758.585C1443.22,570.879 1370.19,412.465 1144.65,408.168C844.753,402.454 593.61,560.008 592.897,784.9ZM1186.07,1097.98C1293.06,957.307 1359.35,827.722 1362.98,773.781C1371.35,649.572 1291.42,476.694 1126.7,477.344C803.009,478.622 658.724,574.115 649.624,783.084C640.201,999.479 1186.07,1097.98 1186.07,1097.98Z" style="stroke:black;stroke-width:1px;"/>
    </g>
</svg>
