<?xml version="1.0" encoding="UTF-8" standalone="no"?>
<!DOCTYPE svg PUBLIC "-//W3C//DTD SVG 1.1//EN" "http://www.w3.org/Graphics/SVG/1.1/DTD/svg11.dtd">
<svg width="100%" height="100%" viewBox="0 0 2048 2048" version="1.1" xmlns="http://www.w3.org/2000/svg" xmlns:xlink="http://www.w3.org/1999/xlink" xml:space="preserve" xmlns:serif="http://www.serif.com/" style="fill-rule:evenodd;clip-rule:evenodd;stroke-linecap:round;stroke-linejoin:round;stroke-miterlimit:1.5;">
    <g id="レイヤー2">
        <path d="M1001.07,808.618C413.582,817.296 -308.914,1660.98 200.793,1640.34C318.778,1635.56 585.203,1367.69 868.462,1090.39C819.185,1268.16 640.746,1640.91 817.356,1637.14C1023.21,1632.74 1633.75,1230.43 1633.75,1230.43C1633.75,1230.43 1132.79,1460.16 1020.85,1462.48C947.254,1464 1087.5,1063.26 1087.67,888.284C1401.87,625.945 1758.08,414.959 1330.43,411.573C414.075,404.317 1.588,1255.52 1.588,1255.52C1.588,1255.52 385.76,506.928 1256.95,497.681C1281.46,497.421 1162.59,634.695 1001.07,808.618ZM819.903,1000.61C646.768,1020.7 96.28,1516.9 303.272,1495.84C388.616,1487.15 607.504,1222.72 819.903,1000.61Z" style="stroke:black;stroke-width:1px;"/>
    </g>
</svg>
