<?xml version="1.0" encoding="UTF-8" standalone="no"?>
<!DOCTYPE svg PUBLIC "-//W3C//DTD SVG 1.1//EN" "http://www.w3.org/Graphics/SVG/1.1/DTD/svg11.dtd">
<svg width="100%" height="100%" viewBox="0 0 2048 2048" version="1.1" xmlns="http://www.w3.org/2000/svg" xmlns:xlink="http://www.w3.org/1999/xlink" xml:space="preserve" xmlns:serif="http://www.serif.com/" style="fill-rule:evenodd;clip-rule:evenodd;stroke-linecap:round;stroke-linejoin:round;stroke-miterlimit:1.5;">
    <g id="レイヤー2">
        <path d="M530.671,1143.87C343.352,1194.98 203.528,1228.25 203.528,1228.25C203.528,1228.25 341.369,1201.81 529.412,1156.79C527.393,1179.93 526.66,1203.14 527.315,1226.31C533.17,1433.51 719.891,1639.15 1024.39,1640.68C1318.02,1642.16 1847.75,1228.08 1847.75,1228.08C1847.75,1228.08 1223.86,1549.62 1021.64,1553.59C842.415,1557.12 685.651,1459.6 684.965,1230.38C684.851,1192.39 690.141,1153.42 699.735,1114.13C776.356,1094.05 856.326,1071.78 935.375,1047.71C933.668,1083.1 940.024,1161.03 1028.83,1162.85C1135.14,1165.02 1217.25,1060.98 1268.37,929.491C1440.7,855.812 1564.34,774.004 1565.57,690.705C1566.26,644.029 1442.49,631.84 1327.82,641.315C1332.42,511.311 1302.07,408.123 1230.2,408.068C943.81,407.85 571.065,769.219 530.671,1143.87ZM1132.84,982.515C1084.66,999.906 1034.56,1016.68 983.673,1032.75C980.868,1060.99 983.315,1111.97 1037.7,1111.28C1065.74,1110.92 1100.49,1057.91 1132.84,982.515ZM1224.76,656.685C1240.32,551.116 1234.47,469.192 1189.39,470.26C1124.86,471.79 790.119,788.717 704.772,1094.88C779.39,1073.19 856.66,1049.78 932.265,1025.37C932.288,1025.1 955.343,757.377 1179.03,670.306C1192.04,665.244 1207.54,660.679 1224.76,656.685ZM1207.18,749.053C1198.14,752.631 1189.38,756.371 1181.03,760.24C993.358,847.142 989.017,1006.52 989.011,1006.74L988.971,1006.75L932.295,1025.36L932.265,1025.37L932.265,1025.37L932.295,1025.36C951.312,1019.22 970.223,1013.01 988.971,1006.75L989.011,1006.74L989.011,1006.74C1043.22,988.639 1095.97,970.102 1145.56,951.422C1169.5,890.127 1191.36,818.265 1207.18,749.053ZM1280.36,896.51C1402.24,842.075 1483.98,788.61 1484.62,742.98C1485.2,701.669 1407.66,698.584 1321.74,715.595C1314.2,775.579 1300.23,838.008 1280.36,896.51Z" style="stroke:black;stroke-width:1px;"/>
    </g>
</svg>
