<?xml version="1.0" encoding="UTF-8" standalone="no"?>
<!DOCTYPE svg PUBLIC "-//W3C//DTD SVG 1.1//EN" "http://www.w3.org/Graphics/SVG/1.1/DTD/svg11.dtd">
<svg width="100%" height="100%" viewBox="0 0 2048 2048" version="1.1" xmlns="http://www.w3.org/2000/svg" xmlns:xlink="http://www.w3.org/1999/xlink" xml:space="preserve" xmlns:serif="http://www.serif.com/" style="fill-rule:evenodd;clip-rule:evenodd;stroke-linecap:round;stroke-linejoin:round;stroke-miterlimit:1.5;">
    <g id="レイヤー2">
        <path d="M-8.02,1237.08C-8.02,1237.08 293.166,441.62 340.951,500.312C388.736,559.004 38.421,1598.41 287.891,1594.21C372.262,1592.79 580.472,460.561 891.444,459.792C1031.16,459.446 531.702,2050.4 1027.14,2048.13C1221.02,2047.24 1433.84,1238.28 1433.84,1238.28C1433.84,1238.28 1100.83,2099.73 1019.18,1954.95C865.478,1682.39 1323.83,395.639 903.422,407.347C594.483,415.951 323.759,1320.66 323.759,1320.66C323.759,1320.66 598.574,416.287 379.391,414.388C254.482,413.306 -8.02,1237.08 -8.02,1237.08Z" style="stroke:black;stroke-width:1px;"/>
    </g>
</svg>
